<?xml version="1.0" encoding="UTF-8"?>
<svg id="Calque_2" data-name="Calque 2" xmlns="http://www.w3.org/2000/svg" viewBox="0 0 7982.44 9395.29">
  <defs>
    <style>
      .cls-1 {
        fill: #ce1042;
      }

      .cls-2 {
        fill: #fff;
      }

      .cls-3 {
        fill: #003976;
      }

      .cls-4 {
        fill: #9a8449;
      }

      .cls-5 {
        fill: #da2128;
      }
    </style>
  </defs>
  <g id="Ebene_1" data-name="Ebene 1">
    <path class="cls-2" d="M3991.23,41.22c1239.61,0,2439.76,255.15,3567.71,757.72,234.62,953.97,382.2,1949.42,385.62,2601.47.13,11.84.13,23.67.13,35.37,0,642.91-92.39,1270.85-274.8,1867.27-179.44,585.73-446.13,1141.08-793.4,1650.52-341.14,500.57-761.68,960.23-1250.3,1365.84-518.55,430.41-1128.38,817.47-1634.95,1038.38-506.43-220.76-1116.26-607.97-1634.96-1038.38-488.61-405.62-909.32-865.26-1250.47-1365.84-347-509.42-613.83-1064.79-793.09-1650.52C130.31,4706.63,37.89,4078.55,37.89,3435.64v-35.24c3.42-652.04,151.04-1647.35,385.64-2601.47C1551.48,296.37,2751.6,41.22,3991.23,41.22"/>
    <path class="cls-1" d="M3991.36,3712.02c274.39,0,533.11,70.73,756.72,196.09h2303.27c4.7-161.15,1.83-342.13-1.29-512.99-13.41-705.38-218.52-1895.94-419.44-2721.96-817.06-264.41-1693.73-419.29-2638.85-419.29l-.41,3458.15"/>
    <path class="cls-5" d="M3991.93,256.71c-924.01,0-1774.58,137.76-2636.84,415.3-212.06,855.83-387.46,1989.36-413.72,2533.29-38.36,796.79,19.27,1372.82,178.71,2003.04,89.7,354.55,208.79,687.57,360.39,1025,163.87-86.15,333.86-194.1,505.57-322.18,180.42-134.49,337-306.48,465.22-469.63-6.71-58.75-10.26-118.52-10.26-179.12,0-93.27,8.12-184.55,23.8-273.39-318.59,11.12-499.58,15.4-641.64,15.4-171.42,0-327.72-119.37-403.6-302.08h-80.27c-60.32,0-162.87-51.62-162.87-245.57s102.55-245.57,162.87-245.57h79.99c75.88-183.27,232.46-302.77,403.88-302.77h1412.33c223.76-125.21,481.62-196.67,756.16-196.67l.28-3455.04"/>
    <path class="cls-3" d="M2589.03,8015.91c-435.4-433.71-795.08-912.89-1079.61-1424.45-288.65-519.41-493.87-1097.72-614.96-1675.75-124.36-594.73-163.72-1195.28-121.94-1831.92,39.51-599.42,197.67-1507.33,393.06-2347.18-187.11,65.73-372.38,138.06-555.78,217.2-205.5,825.16-349.83,1872.12-352.82,2444.44-3.29,637.93,87.43,1255.88,265.24,1837.2,186.41,609.4,433.56,1105.29,764.72,1591.16,329.58,483.89,736.47,928.16,1209.1,1320.65,441.96,366.82,945.82,689.41,1494.76,961.22,0,0,.13,0,0,0-522.14-320.32-994.91-687.55-1401.77-1092.58"/>
    <path class="cls-3" d="M5392.86,8016.04c435.4-433.68,794.95-912.89,1079.46-1424.45,288.78-519.41,493.88-1097.57,614.98-1675.75,124.48-594.71,163.7-1195.26,121.92-1831.9-39.37-599.42-197.95-1508.18-393.34-2348.04,187.11,65.75,373.39,138.62,556.8,217.77,205.65,825.18,349.12,1872.42,352.26,2444.74,3.29,637.92-87.56,1256.01-265.24,1837.16-172.85,564.91-430.14,1100.3-764.74,1591.19-329.57,483.87-736.43,928.14-1209.24,1320.64-441.96,366.81-945.82,689.41-1494.76,961.37.15,0,0-.17,0,0,522.25-320.45,995.04-687.53,1401.91-1092.72"/>
    <path class="cls-4" d="M3990.09,3789.46c-813.77,0-1473.53,659.89-1473.53,1473.38s659.76,1473.52,1473.53,1473.52,1473.52-659.61,1473.52-1473.52-659.76-1473.38-1473.52-1473.38"/>
    <path class="cls-5" d="M3991.23,6813.38c-500.72,0-946.68-237.47-1230.37-605.85-346.13,197.67-709.79,353.68-1057.78,460.37,274.67,482.75,616.11,934.13,1026.41,1347.3,370.38,372.79,793.95,713.36,1261.74,1016.42v-2218.24"/>
    <path class="cls-4" d="M1821.75,4927.53c-159.44,0-295.79-125.62-349.83-301.91h-133.92c-34.51,0-85.99-41.93-85.99-168.58s51.49-168.42,85.99-168.42h133.79c54.05-176.83,190.53-302.91,349.97-302.91h1288.68c-312.9,215.91-542.52,543.93-630.93,925.74-285.38,9.98-504.16,16.08-657.75,16.08"/>
    <path class="cls-4" d="M6695.52,6826.35c-329.7,483.77-736.47,928.16-1209.37,1320.49-441.96,366.67-946.4,689.71-1495.2,961.52-548.93-271.82-1052.79-594.86-1494.63-961.52-472.77-392.33-879.66-836.71-1209.24-1320.49-26.09-38.36-51.62-77.15-76.72-115.93,481.33-81.17,1013.56-285.53,1505.02-565.61-122.5-176.72-209.65-379.8-250.14-599.29-123.08,151.3-269.84,304.77-437.28,429.71-271.68,202.8-599.69,404.18-954.54,513.27-232.04-395.47-417.14-815.48-551.07-1253.31-177.83-581.18-268.55-1199.11-265.13-1837.05,2.84-572.33,147.17-1619.26,352.54-2444.45C1679.84,491.76,2816.77,257.01,3991.21,257.01s2311.38,234.75,3381.44,696.68c205.52,825.18,349.68,1872.12,352.67,2444.45,1.03,197.95-6.99,394.2-23.94,587.72h-2832.48c350.27,241.74,596.12,623.96,656.29,1065.5l540.25-128.8c120.51-26.96,170.43-108.53,182.96-182.98l1359.01-91.83c-39.54,199.38-88.59,395.32-147.35,587.44-172.83,564.6-429.98,1099.98-764.55,1591.14M7591.29,768.14C6496.85,277.81,5292.46,0,3991.23,0S1485.73,277.81,391.29,768.14C138.86,1789.41,3.38,2780.31.09,3396.85c-3.42,658.88,89.57,1302.68,276.53,1913.49,180.27,589.45,448.97,1148.35,797.94,1660.76,343.14,503.59,766.28,965.82,1257.74,1373.56,462.06,383.61,1088.01,804.51,1658.92,1050.65,570.91-246.14,1196.97-667.03,1659.03-1050.65,491.48-407.73,914.48-869.96,1257.46-1373.56,349.27-512.41,617.83-1071.31,798.25-1660.76,186.81-610.81,279.95-1254.6,276.38-1913.49-3.12-616.54-138.75-1607.44-391.05-2628.71Z"/>
    <path class="cls-2" d="M4087.92,5670.29v793.94c370.5-29.66,693.84-227.05,893.93-515.98l-687.42-396.89c-55.04,57.77-126.37,99.83-206.51,118.93"/>
    <path class="cls-2" d="M3892.83,4061.57c-370.8,29.68-694.12,227.05-894.35,516.41l686.12,395.76c55.33-58.61,127.22-101.11,208.22-120.23v-791.94"/>
    <path class="cls-2" d="M3989.94,5048.33c-118.22,0-214.2,95.85-214.2,214.07s95.98,214.2,214.2,214.2,214.08-95.7,214.08-214.2c0-118.2-95.85-214.07-214.08-214.07"/>
    <path class="cls-2" d="M4087.92,4061.57v791.94c80.86,19.27,152.88,61.77,207.92,120.4l686.27-395.93c-200.22-289.21-523.55-486.6-894.2-516.41"/>
    <path class="cls-2" d="M3892.83,5670.43c-65.32-15.54-124.65-46.33-174.29-88.43-11.4-9.68-22.11-19.95-32.37-30.51l-687.42,396.76c15.84,22.82,32.24,44.77,49.48,66.46,201.8,252.43,503.15,422.16,844.58,449.51v-793.8"/>
    <path class="cls-2" d="M4392.56,5382.64l687.13,396.61c135.2-277.38,172.85-674.27.15-1032.39l-686.7,396.33c22.09,71.59,24.37,157.58-.58,239.45"/>
    <path class="cls-4" d="M3112.72,4555.46l559.9,322.88c42.63-35.79,90.98-63.18,143.19-82.43l-.28-646.33c-276.96,41.52-527.41,186.11-702.8,405.89"/>
    <path class="cls-4" d="M4166.22,4150.15l-1.03,647.93c52.09,19.09,98.85,44.34,141.49,79.98l561.19-322.44c-175.26-219.78-424.56-363.96-701.66-405.46"/>
    <path class="cls-4" d="M5113.34,5145.88c-10.42-98.98-34.11-195.39-70.46-287.8l-561.92,322.88c4.56,26.81,7.15,53.77,7.15,80.87,0,10.97-.58,21.94-1.28,32.67,158.72-43.36,326.01-84.59,495.44-120.38,41.2-8.7,85.29-18.11,131.07-28.23"/>
    <path class="cls-1" d="M3991.23,9031.62c467.92-303.07,892.49-644.64,1262.72-1017.56,433.98-436.83,791.66-919.18,1073.79-1433.16,286.49-522.12,489.02-1102.42,606.94-1682.44,9.3-44.79,17.81-87.58,25.83-132.35l-652.74,46.64c-34.54,91.56-112.69,159.42-222.23,183.96l1.15-.28c-4.42,1.28-243.75,60.6-552.06,131.78,3.7,44.2,5.71,89.12,5.71,134.49,0,856.42-693.26,1550.67-1549.09,1550.67v2218.25"/>
    <path class="cls-4" d="M4127.99,5262.41c0-75.86-62.03-138.04-138.06-138.04s-138.04,62.18-138.04,138.04,62.05,138.04,138.04,138.04c76.03,0,138.06-61.88,138.06-138.04"/>
    <path class="cls-1" d="M4164.93,6376.1c276.7-41.5,528.26-185.68,703.54-405.31l-563.77-324.45c-42.21,35.22-88.43,62.9-139.77,81.72,0,0,1.01,648.04,0,648.04"/>
    <path class="cls-5" d="M3113,5970.94l561.19-325.02c42.35,35.22,90.13,62.16,141.61,81.01l-1.29,648.91c-276.8-41.53-526.1-185.27-701.51-404.89"/>
    <path class="cls-1" d="M5118.75,5263.69c0-15.26-.55-30.68-1.13-45.78-42.49,9.13-83.15,18.13-121.51,26.11-171.41,36.07-337.15,78.13-485.19,118.5l531.1,306.62c50.61-128.93,76.72-264.98,76.72-405.46"/>
    <path class="cls-2" d="M2900.07,4748.14c-159.02,336.14-148.75,714.92,2.14,1032.55l685.11-397.62c-23.24-77.14-24.24-160.58-.56-240.59l-686.69-394.34"/>
    <path class="cls-4" d="M2939.72,5670.59l558.77-324.62c-9.56-54.75-9.26-110.39,0-165.28l-560.48-321.75c-102.14,260.86-101.41,550.07,1.71,811.65"/>
    <path class="cls-4" d="M5906.71,2649.54c-74.32,2.71-90.42-47.64-91.41-84.14.28-38.23,12.96-95.28,131.17-127.23,2.87,40.5,5.99,81.02,5.99,81.02l2.42,36.5c1.73,26.26,3.29,49.91,5.99,75.74-15.65,10.39-33.48,17.38-54.16,18.11M4453.46,2527.6c-80.46,68.59-140.18,114.24-237.59,112.23-76.59-1.56-123.93-53.18-153.03-110.95,84.13-31.52,397.87-149.46,487.73-183.13,1.03,65.75,2.29,154.03,2.29,154.03v.71c2.14,52.06,2.72,102.97,1.73,153.31v2.01l-101.12-128.21ZM4009.47,2263.32v-3.12c0-129.49,48.35-180.12,93.99-184.4,13.69-1.28,50.18-4.55,66.88,56.19,6.44,23.52,9.13,41.08,9.13,54.76,0,35.07-18.84,41.91-41.07,49.9l-1.44.43s-66.05,25.38-126.79,48.64c-.12-7.4-.7-14.82-.7-22.39ZM1625.36,2358.75c22.11-63.33,39.79-113.96,77.3-222.07,22.53,107.68,34.51,164.15,45.78,217.92-47.21,1.71-68.61,2.42-123.09,4.15ZM4551.43,2739.52c-1.44,30.09-9.13,131.78-11.84,162.01h446.66c-26.09-119.37-36.8-284.95-41.52-408.3,0,.56-6.84-257.71-6.84-257.71-.85-24.53,6.14-45.07,20.12-59.76,12.83-13.41,30.54-21.4,48.64-21.53,20.83-.28,55.76-.71,58.61,72.03l9.54,274.11c4.55,123.22,6.42,296.35-9.84,401.18h435.14c-7.14-37.35-19.55-127.22-22.54-151.88,54.79,115.67,171.74,175.14,328.32,175.14,92.84,0,165.43-33.38,218.2-66.46,1.86,3.57,22.53,43.23,22.53,43.23h803.93c-35.77-120.94-57.75-288.66-72.01-413.29,0-.71-109.81-900.77-109.81-900.77l-414.46-66.75c33.53,112.53,58.48,284.95,72.44,408.88,0,.58,62.05,575.45,62.05,575.45,11.84,104.98,22.66,217.35,21.66,330.3l-.15,13.98-16.53-40.64c-28.68-70.18-47.21-168.87-56.75-301.63-.15-.86-17.26-184.69-17.26-184.69-21.96-292.37-182.86-425.71-532.1-425.71-59.34,0-207.81,14.84-297.78,40.64l24.24,333.04,93.12-57.19c76.16-46.78,137.63-66.75,205.22-66.75,55.63,0,91.7,20.82,108.39,58.61-68.62,11.12-142.49,29.38-223.91,65.9-123.38,55.19-203.94,134.77-236.29,230.32-.17-2.71-.17-5.41-.32-7.97-.15-.73-14.39-305.35-14.39-305.35-7.42-197.38-130.22-320.32-320.47-320.32-87.99,0-166.01,25.25-233.74,73.87-3.73-12.12-7.87-23.52-12.42-33.23l-16.95-35.36-357.55-16.4c16.12,64.32,38.36,243.75,43.06,314.19-18.96-97.12-69.73-200.52-165.85-267.55-73-50.63-164.57-77.59-264.83-77.59-132.93,0-266.85,55.62-358.4,149.03-90.57,92.29-140.35,218.65-145.48,367.1-33.66-36.93-78.45-68.46-134.34-94.55l-164.28-78.3-8.13-3.85c-39.51-18.39-40.92-24.82-40.07-35.51,1.28-16.68,39.36-34.81,93.27-34.81,67.59,0,165.3,33.95,244.44,84.57l6.71-294.06c-58.61-26.39-140.2-48.07-257.13-48.07-61.05,0-178.28,8.7-279.25,65.73-27.95,15.84-53.18,34.1-75.58,53.93l4.56-86.43c-95.13-10.71-197.1-13.69-321.6,101.67-1-7.98-9.28-48.07-17.55-71.16l-386.2,23.52c28.67,103.53,32.22,260.28,24.38,400.05,0,.41-7.27,147.6-7.27,147.6,0-.41-1.15,16.7-1.15,16.7-4.15,77.14-8.57,155.72-16.4,229.45-32.24-99.83-67.74-236.03-94.42-349.12l-190.69-858.49-544.66,77.74c4.71,10.99,12.42,38.78,15.97,65.88,4.85,35.94,3.29,110.37-48.49,261.28-87.43,254.57-213.22,630.65-333.43,890.06-16.83,36.37-45.37,95.98-45.37,95.98h424.15c5.43-66.45,33.51-176.12,60.75-255.85,58.46-1.58,212.51-5.56,283.52-7.42,13.13,61.6,30.68,148.9,34.38,199.96l4.56,63.31h853.71c-20.25-133.92-12.42-319.17-6.57-424.28,6.71-119.23,31.66-195.53,81.01-246.87,38.23-39.94,83.99-49.35,115.95-50.2-4.42,159.59,100.54,234.04,194.1,280.96l166.73,84.86c60.04,31.37,58.89,47.62,58.05,58.16-2.42,32.1-50.76,44.5-95.11,43.36-86.85-1.84-207.08-61.9-342.71-201.95l-7.14,380.21c107.4,60.47,237.6,82.17,356.12,82.17,193.37,0,401.04-84.29,456.93-264.56,95.26,182.25,285.81,266.4,473.65,266.4,167.7.02,293.05-54.03,402.74-170.26Z"/>
    <path class="cls-2" d="M3544.13,1931.31c-37.51-13.98-98.12-27.37-189.55-27.37-75.44,0-171.14,14.39-246.87,57.19-86.28,48.9-147.02,127.2-152.58,209.92-8.3,123.22,60.02,181.85,156.6,230.33,65.73,32.93,128.21,64.89,167.7,85.42,53.07,27.8,98.83,61.75,94.27,123.08-4.85,62.46-62.18,104.54-161.15,104.54-81.59,0-199.38-47.92-279.53-120.94l-3.42,191.67c69.87,35.07,184.25,55.91,287.78,55.91,179.69,0,401.61-82.15,405.61-292.08,2.71-149.31-106.82-211.06-171.72-241.31-64.74-30.23-133.06-63.33-165.3-78.71-29.51-14.54-91.56-37.66-86.13-105.54,5.28-64.89,79.16-95.56,159.16-95.56,67.31,0,132.5,18.54,182.39,45.5l2.74-142.04"/>
    <path class="cls-2" d="M1529.95,2428.77l188.25-541.66,111.66,531.68-299.92,9.98M1941.12,1585.61l-411.17,58.89c9.99,58.89-5.71,161.3-50.63,292.08-86.58,252.43-225.9,658.45-336.45,898.2h259.43c12.68-76.57,34.64-154.59,71.16-254.72l384.64-10.13c16.96,75.74,43.06,196.52,48.07,264.84h343.28c-42.23-98.68-97.27-308.05-131.22-451.95l-177.12-797.22Z"/>
    <path class="cls-2" d="M2933.28,1932.74l-8.85,182.41c-60.46-7.85-139.9,5.43-200.65,68.59-56.19,58.63-91.28,143.77-99.4,289.38-6.57,119.78-10.99,251.13-.86,361.67h-294.36c19.39-108.94,25.96-239.02,32.8-359.1l7.27-146.89c6.71-119.67,7.12-233.04-11.27-342.3l256.56-15.84c11.98,42.93,17.83,100.97,14.97,164.72,112.41-168.42,222.08-206.65,303.79-202.65"/>
    <path class="cls-2" d="M6608.25,1645.65l-265.16-42.79c26.11,110.82,36.67,198.81,50.08,318.31l62.02,575.75c13.41,119.8,22.99,228.91,21.98,337.87h287.09c-25.51-108.94-38.51-218.05-52.21-337.87l-103.8-851.27"/>
    <path class="cls-2" d="M5421.67,2834.79c-17.1-108.94-23.82-218.05-28.09-337.87l-14.41-304.63c-6.14-161.88-99.12-257.86-255-257.86-85.42,0-186.68,27.52-273.54,137.19-2.42-23.09-15.69-99.96-31.79-133.76l-233.45-10.84c20.1,113.09,26.38,226.33,30.94,345.7l3.27,224.19c4.56,119.8,1.84,228.91-7.4,337.87h294.08c-17.28-108.94-23.67-218.05-28.22-337.87l-7.02-258.55c-3.4-91.71,65.2-150.04,135.92-151.04,81.89-1,121.96,53.2,125.08,135.34l9.54,274.26c4.56,119.8,6.27,228.91-2.86,337.87h282.95"/>
    <path class="cls-2" d="M5906.26,2715.56c-83,3.57-154.87-40.35-157.73-146.89-2.56-95.41,62.9-179.86,259.15-212.07l11.27,156.43c4,54.06,5.41,91.99,12.25,143.9-28.22,33.96-74.58,56.22-124.94,58.63M6331.71,2834.79c-35.22-86.57-52.77-201.67-61.47-321.75l-17.11-183.84c-16.25-217.05-107.53-365.8-466.63-365.8-62.05,0-152.88,10.13-225.77,26.24l12.12,166.86c72.87-44.92,148.33-77.02,240.87-77.02s178.56,39.22,186.4,182.13c-92.69,10.41-179.42,26.38-276.66,70.17-109.39,48.92-222.2,137.21-211.53,287.52,11.85,166.14,137.36,238.58,295.37,238.58,118.94,0,202.08-61.75,247.03-108.11,8.25,30.68,19.94,61.47,33.35,85.01h244.03v.02Z"/>
    <path class="cls-2" d="M4160.94,2299.39l-209.93,80.57c-5.28-37.65-8.13-76.72-8.42-116.36-1.28-217.92,116.1-250.72,154.74-254.29,64.75-5.99,116.81,29.66,137.33,104.96,23.41,85.02,17.56,152.47-73.72,185.12M4343.92,1957.99c-65.19-45.22-143.62-65.75-226.75-65.75-190.13,0-444.12,134.92-437.41,488.19,6.71,354.4,277.81,462.51,468.93,462.51,167.72,0,269.39-59.33,352.26-147.19l-58.75-74.58c-44.93,35.22-113.82,87.84-227.78,85.57-120.36-2.42-199.66-92.13-238.73-216.34l527.81-198.38c-16.27-174.59-76.01-275.7-159.59-334.03Z"/>
  </g>
</svg>