<?xml version="1.0" encoding="UTF-8"?>
<svg id="Calque_2" data-name="Calque 2" xmlns="http://www.w3.org/2000/svg" viewBox="0 0 1395.01 1395.01">
  <defs>
    <style>
      .cls-1 {
        fill: #286cfc;
      }

      .cls-1, .cls-2, .cls-3 {
        stroke-width: 0px;
      }

      .cls-2 {
        fill: #ed0037;
      }

      .cls-3 {
        fill: #fff;
      }
    </style>
  </defs>
  <g id="Calque_1-2" data-name="Calque 1">
    <path class="cls-1" d="M697.51,0C312.28,0,0,312.28,0,697.51s312.28,697.51,697.51,697.51,697.51-312.28,697.51-697.51S1082.73,0,697.51,0Z"/>
    <path class="cls-3" d="M697.51,34.88C331.55,34.88,34.88,331.55,34.88,697.51s296.67,662.63,662.63,662.63,662.63-296.67,662.63-662.63S1063.47,34.88,697.51,34.88Z"/>
    <path class="cls-2" d="M697.51,66.26c-348.63,0-631.24,282.61-631.24,631.24s282.61,631.24,631.24,631.24,631.24-282.61,631.24-631.24S1046.14,66.26,697.51,66.26ZM697.51,1091.6c-217.65,0-394.09-176.42-394.09-394.09s176.44-394.09,394.09-394.09,394.09,176.44,394.09,394.09-176.42,394.09-394.09,394.09Z"/>
    <path class="cls-1" d="M351.02,804.74c16.56,53.46,44.34,100.33,79.96,138.85v-163.59l-92.41-135.01c-7.63,51.91-4.09,106.28,12.45,159.74ZM537.59,934.29v-187.27l-105.79-154.55v-141.76c-19.59,21.13-36.54,44.44-50.53,69.41l49.71,72.62v187.29l105.79,154.54v88c25.65,12.69,52.79,22.37,80.91,28.74l-80.08-117h-.02ZM644.2,714l105.79,154.54v187.29l-105.79-154.55v-187.29l-105.79-154.55v-187.27l105.79,154.54v187.3ZM750.81,681.01l-105.79-154.55v-187.27l105.79,154.55v187.27l105.79,154.55v187.29l-105.79-154.55v-187.29ZM590.28,351.02c-54.02,16.72-101.31,44.91-140.06,81.06l87.37,127.64v187.29l105.79,154.54v154.68c52.39,7.94,107.34,4.49,161.36-12.23,54.02-16.71,101.31-44.92,140.06-81.05l-87.37-127.64v-187.27l-105.79-154.55v-154.68c-52.39-7.94-107.34-4.49-161.36,12.23M964.05,802.3v-187.29l-105.79-154.55v-87.99c-25.65-12.7-52.81-22.37-80.91-28.74l80.08,117v187.29l105.79,154.55v141.76c19.59-21.13,36.52-44.44,50.53-69.41l-49.69-72.62ZM1044,590.28c-16.56-53.46-44.35-100.33-79.95-138.85v163.6l92.41,135.01c7.63-51.91,4.09-106.28-12.45-159.74"/>
    <path class="cls-3" d="M275.5,827.89l17.9,38.15-29.12,55.07c-4.39,8.18-8.19,14.89-8.19,14.89l.39.72s7.69.46,16.94,1.25l62.05,5.6,22.21,35.8-134.06,78.32-21.44-34.36,56.1-32.77c13.08-7.57,22.96-12.93,22.96-12.93l-.39-.73s-6.77-.51-20.92-2.59l-57.12-8.49-.38-.72,24.01-52.51c5.95-12.99,9.24-18.96,9.24-18.96l-.38-.73s-9.87,5.36-23.34,12.21l-58.05,29.17-17.13-36.71,138.74-69.72v.02Z"/>
    <path class="cls-3" d="M378.25,997.15l30.91,27.45-62.06,73.85c-10.18,12.26-9.67,25.16,5.73,37.27,15.41,12.14,28.06,9.61,37.59-3.16l57.24-77.64,33.93,23.61-58.76,79.56c-26.94,36.52-61.83,29.31-91.99,5.55-30.16-23.76-45.34-56-16.17-90.74l63.58-75.78v.03ZM440.08,1047.41l-38.15,26.65-.63-.51,16.96-43.32,21.82,17.19Z"/>
    <path class="cls-3" d="M505.49,1092l40.36,14.72,22.8,77.91c4.95,16.85,6.95,25.78,6.95,25.78l1.18.36s2.63-11.58,6.49-25.78l16.56-61.98,39.43,9.33-40.11,150.03-41.77-10.03-26.01-81.44c-5.04-15.81-7.15-25.82-7.15-25.82l-1.18-.36s-3.46,12.18-7.86,25.36l-21.17,63.16-38.01-14.01,49.49-147.19v-.03Z"/>
    <path class="cls-3" d="M807.65,1226.36c.85,36.79-22.2,62.11-66.22,65.08-41.17,2.79-79.7-15.89-81.93-75.93-2.28-60.85,31.39-83.61,70.93-86.29,42.8-2.9,67.55,21.02,71.81,53.49l-41.57,2.82c-3.83-14.07-11.34-22.37-29.68-21.13-17.11,1.17-29.15,16.93-27.85,48.16,1.4,32.66,14.94,45.26,34.1,43.96,19.16-1.3,27.55-10.46,28.44-27.31l41.99-2.85h-.02Z"/>
    <path class="cls-3" d="M816.87,1119.05l38.56-14.88,21.87,52.42,48.15-21.93-25.22-50.9,36.54-19.35,68.83,139.21-36.52,19.34-27.25-55.37-50.36,22.96,23.9,56.89-38.57,14.88-59.83-143.1-.09-.19-.02.02Z"/>
    <path class="cls-3" d="M961.15,1046.16l74.34-71.22,23.91,23.48-46.61,44.66,17.78,19.73,45.12-43.24,23.36,22.89-46.61,44.66,19.33,21.65,52.5-50.32,23.91,23.49-83.17,79.7-103.87-115.48Z"/>
    <path class="cls-3" d="M1054.04,952.92l21.33-37.29,80.65-9.32c17.45-2.03,26.58-2.49,26.58-2.49l.54-1.1s-10.96-4.56-24.3-10.76l-58.3-26.8,15.86-37.28,141.1,64.9-16.96,39.48-84.66,11.88c-16.45,2.29-26.68,2.68-26.68,2.68l-.54,1.1s11.42,5.47,23.67,12.03l58.67,31.54-20.24,35.09-136.73-73.68.02.02Z"/>
    <path class="cls-3" d="M165.96,438.86l31.16,12.32-24.88,68.96,29.09,9.63,23.28-64.54,30.38,12.05-22.6,62.62,54.41,17.68-11.7,39.63-148.8-48.48,39.65-109.88.02.02Z"/>
    <path class="cls-3" d="M356.2,336.34c26.85,24.34,31.48,57.66,4.63,91.64-24.57,31.09-62.36,45.99-111.26,9.71-48.25-35.77-41.89-78.12-16.31-110.49,27.1-34.3,61.65-37.19,88.46-18.09l-25.82,32.69c-12.62-7.1-24.44-6.29-36.21,8.6-11.91,15.07-9.18,33.36,16.97,52.96,25.02,18.73,44.56,18.04,55.46,4.26,11.66-14.74,9.38-26.69-2.01-38.3l26.09-33.01v.03Z"/>
    <path class="cls-3" d="M458.28,160.57c27.44-12.68,54.3-15.42,66.14,12.63,9.72,22.96,3.55,33-8.45,43.06l.43.93c12.8-2.99,29.96-2.37,40.87,23.19,13.13,30.83-6.98,48.67-34.43,61.35l-58.03,26.82-69.57-138.85,63.04-29.12h-.02ZM481.57,216.85c10.76-4.98,13.83-10,9.49-20.37-4.17-10-11.27-10.76-21.65-5.97l-23.17,10.71,13.1,25.9,22.24-10.27ZM507.8,273.58c11.87-5.49,15.11-10.14,10.09-21.98-4.68-11.11-12.9-11.36-24.77-5.88l-20.03,9.26,14.12,28.12,20.58-9.52Z"/>
    <path class="cls-3" d="M740.78,262.59l-44.08-.11-12.65-27.82-53.32,4.59-7.7,29.57-43.42,7.63,43.03-162.38,48.02-4.12,70.11,152.65h.02ZM672.05,204.74l-13.25-30.22c-4.58-10.26-8.03-19.41-8.03-19.41l-.82.08s-1.85,9.6-4.59,20.49l-7.91,32.04,34.6-2.98Z"/>
    <path class="cls-3" d="M780,217.02l-36.05-110.24,46.56,8.85,14.09,46.75c2.65,8.94,4.99,18.43,4.99,18.43l.79.17s6.06-7.67,12.18-14.7l32.21-36.69,46.05,11.26-78.51,85.36-12.01,51.52-40.72-8.84,10.42-51.86v-.02Z"/>
    <path class="cls-3" d="M931.76,154.23l97.74,53.68-17.02,28.86-60.33-33.13-12.06,23.67,55.68,30.56-16.62,28.15-53.88-29.59-13.24,25.81,58.72,32.24-17.02,28.88-92.38-50.72,70.4-138.42Z"/>
    <path class="cls-3" d="M1083.57,249.94l47.41,50.73c24.26,25.96,30.06,51.01,1.18,76.34-18.46,16.14-31.9,20.6-48.16,14.26l-24.8,62.59-29.28-35.82,22.68-51.11-13.53-14.48-36.49,36.33-29.96-28.47,110.95-110.39v.02ZM1062.24,329.41l16.04,17.16c8.93,9.55,16.43,9.79,26.4,1.04,9.83-8.62,9.67-16.86.74-26.41l-16.88-18.06-26.32,26.27h.02Z"/>
    <path class="cls-3" d="M1122.72,596.9l-14.17-40.55,45.84-66.99c9.79-14.23,15.54-21.7,15.54-21.7l-.46-1.13s-10.63,5.3-24.06,11.3l-58.45,26.46-17.76-36.41,141.49-64,18.69,38.67-46.53,71.71c-8.93,13.65-15.45,21.89-15.45,21.89l.47,1.13s11.61-5.04,24.6-9.98l62.28-23.62,13.24,38.28-145.24,54.93-.02.02Z"/>
  </g>
</svg>