<?xml version="1.0" encoding="UTF-8"?>
<svg id="Calque_2" data-name="Calque 2" xmlns="http://www.w3.org/2000/svg" xmlns:xlink="http://www.w3.org/1999/xlink" viewBox="0 0 532.94 558.27">
  <defs>
    <style>
      .cls-1 {
        fill: #cececc;
      }

      .cls-2 {
        fill: #c3c2c2;
      }

      .cls-3 {
        fill: #54af58;
      }

      .cls-4 {
        fill: url(#Dégradé_sans_nom_1384-2);
      }

      .cls-5 {
        fill: #f4e64c;
      }

      .cls-6 {
        fill: url(#Dégradé_sans_nom_206);
      }

      .cls-7 {
        fill: url(#Dégradé_sans_nom_208);
      }

      .cls-8 {
        fill: url(#Dégradé_sans_nom_209);
      }

      .cls-9 {
        fill: url(#Dégradé_sans_nom_202);
      }

      .cls-10 {
        fill: url(#Dégradé_sans_nom_211);
      }

      .cls-11 {
        fill: url(#Dégradé_sans_nom_212);
      }

      .cls-12 {
        fill: url(#Dégradé_sans_nom_213);
      }

      .cls-13 {
        fill: url(#Dégradé_sans_nom_218);
      }

      .cls-14 {
        fill: url(#Dégradé_sans_nom_170);
      }

      .cls-15 {
        fill: url(#Dégradé_sans_nom_171);
      }

      .cls-16 {
        fill: url(#Dégradé_sans_nom_174);
      }

      .cls-17 {
        fill: url(#Dégradé_sans_nom_173);
      }

      .cls-18 {
        fill: url(#Dégradé_sans_nom_589);
      }

      .cls-19 {
        fill: url(#Dégradé_sans_nom_588);
      }

      .cls-20 {
        fill: #c6c6c6;
      }

      .cls-21 {
        fill: #e8db4e;
      }

      .cls-22 {
        fill: #fff;
      }

      .cls-23 {
        fill: #da3832;
      }

      .cls-24 {
        fill: url(#Dégradé_sans_nom_213-2);
      }

      .cls-25 {
        fill: url(#Dégradé_sans_nom_202-3);
      }

      .cls-26 {
        fill: url(#Dégradé_sans_nom_202-4);
      }

      .cls-27 {
        fill: url(#Dégradé_sans_nom_202-5);
      }

      .cls-28 {
        fill: url(#Dégradé_sans_nom_202-6);
      }

      .cls-29 {
        fill: url(#Dégradé_sans_nom_202-2);
      }

      .cls-30 {
        fill: url(#Dégradé_sans_nom_589-2);
      }

      .cls-31 {
        fill: url(#Dégradé_sans_nom_589-3);
      }

      .cls-32 {
        fill: #b9b8b7;
      }

      .cls-33 {
        fill: #c5c2c2;
      }

      .cls-34 {
        fill: #2368a8;
      }

      .cls-35 {
        fill: url(#Dégradé_sans_nom_1167);
      }

      .cls-36 {
        fill: url(#Dégradé_sans_nom_1385);
      }

      .cls-37 {
        fill: url(#Dégradé_sans_nom_1384);
      }
    </style>
    <linearGradient id="Dégradé_sans_nom_1385" data-name="Dégradé sans nom 1385" x1="0" y1="279.13" x2="532.94" y2="279.13" gradientUnits="userSpaceOnUse">
      <stop offset="0" stop-color="#a7a9ab"/>
      <stop offset=".99" stop-color="#d1d3d4"/>
    </linearGradient>
    <linearGradient id="Dégradé_sans_nom_1167" data-name="Dégradé sans nom 1167" x1="12.11" y1="269.09" x2="521.42" y2="269.09" gradientTransform="translate(0 560.39) scale(1 -1)" gradientUnits="userSpaceOnUse">
      <stop offset="0" stop-color="#3070b4"/>
      <stop offset=".64" stop-color="#2c377d"/>
      <stop offset=".91" stop-color="#1e509a"/>
    </linearGradient>
    <radialGradient id="Dégradé_sans_nom_218" data-name="Dégradé sans nom 218" cx="436.05" cy="468.16" fx="436.05" fy="468.16" r="427.24" gradientUnits="userSpaceOnUse">
      <stop offset="0" stop-color="#a7a9ab"/>
      <stop offset=".99" stop-color="#d1d3d4"/>
    </radialGradient>
    <linearGradient id="Dégradé_sans_nom_589" data-name="Dégradé sans nom 589" x1="375.43" y1="161.81" x2="385.31" y2="161.81" gradientUnits="userSpaceOnUse">
      <stop offset="0" stop-color="#1662a3"/>
      <stop offset="1" stop-color="#243c6c"/>
    </linearGradient>
    <linearGradient id="Dégradé_sans_nom_589-2" data-name="Dégradé sans nom 589" x1="146.2" y1="162.72" x2="158.01" y2="162.72" xlink:href="#Dégradé_sans_nom_589"/>
    <linearGradient id="Dégradé_sans_nom_589-3" data-name="Dégradé sans nom 589" x1="202.01" y1="81.92" x2="330.86" y2="81.92" xlink:href="#Dégradé_sans_nom_589"/>
    <linearGradient id="Dégradé_sans_nom_1384" data-name="Dégradé sans nom 1384" x1="19.18" y1="177.87" x2="214.39" y2="177.87" gradientUnits="userSpaceOnUse">
      <stop offset="0" stop-color="#3070b4"/>
      <stop offset=".51" stop-color="#1e509a"/>
      <stop offset="1" stop-color="#2a3a81"/>
    </linearGradient>
    <linearGradient id="Dégradé_sans_nom_1384-2" data-name="Dégradé sans nom 1384" x1="338.38" y1="224.48" x2="419.63" y2="140.16" xlink:href="#Dégradé_sans_nom_1384"/>
    <linearGradient id="Dégradé_sans_nom_588" data-name="Dégradé sans nom 588" x1="196.04" y1="329.11" x2="227.7" y2="277.61" gradientTransform="translate(0 560.39) scale(1 -1)" gradientUnits="userSpaceOnUse">
      <stop offset="0" stop-color="#bd3430"/>
      <stop offset="1" stop-color="#7c2320"/>
    </linearGradient>
    <radialGradient id="Dégradé_sans_nom_209" data-name="Dégradé sans nom 209" cx="256.43" cy="40.23" fx="256.43" fy="40.23" r="86.92" gradientUnits="userSpaceOnUse">
      <stop offset="0" stop-color="#fff"/>
      <stop offset=".47" stop-color="#c5c7c7"/>
      <stop offset=".56" stop-color="#b3b8ba"/>
      <stop offset=".69" stop-color="#a1abad"/>
      <stop offset=".84" stop-color="#97a2a6"/>
      <stop offset="1" stop-color="#94a0a4"/>
    </radialGradient>
    <linearGradient id="Dégradé_sans_nom_213" data-name="Dégradé sans nom 213" x1="356.84" y1="105.56" x2="259.44" y2="-17.74" gradientUnits="userSpaceOnUse">
      <stop offset="0" stop-color="#d1d3d4"/>
      <stop offset="1" stop-color="#818284"/>
    </linearGradient>
    <linearGradient id="Dégradé_sans_nom_202" data-name="Dégradé sans nom 202" x1="271.98" y1="176.95" x2="172.24" y2="50.7" gradientUnits="userSpaceOnUse">
      <stop offset="0" stop-color="#fff"/>
      <stop offset="1" stop-color="#818284"/>
    </linearGradient>
    <linearGradient id="Dégradé_sans_nom_202-2" data-name="Dégradé sans nom 202" x1="217.02" y1="105.08" x2="213.3" y2="100.37" xlink:href="#Dégradé_sans_nom_202"/>
    <linearGradient id="Dégradé_sans_nom_211" data-name="Dégradé sans nom 211" x1="332.94" y1="124.13" x2="237.19" y2="2.92" gradientUnits="userSpaceOnUse">
      <stop offset="0" stop-color="#fff"/>
      <stop offset="1" stop-color="#d1d3d4"/>
    </linearGradient>
    <linearGradient id="Dégradé_sans_nom_202-3" data-name="Dégradé sans nom 202" x1="313.32" y1="146.16" x2="210.22" y2="15.65" xlink:href="#Dégradé_sans_nom_202"/>
    <linearGradient id="Dégradé_sans_nom_202-4" data-name="Dégradé sans nom 202" x1="359.26" y1="104.44" x2="262.4" y2="-18.16" xlink:href="#Dégradé_sans_nom_202"/>
    <linearGradient id="Dégradé_sans_nom_213-2" data-name="Dégradé sans nom 213" x1="327.52" y1="127.56" x2="231.37" y2="5.87" xlink:href="#Dégradé_sans_nom_213"/>
    <linearGradient id="Dégradé_sans_nom_212" data-name="Dégradé sans nom 212" x1="291.41" y1="156.05" x2="195.47" y2="34.6" gradientUnits="userSpaceOnUse">
      <stop offset="0" stop-color="#d1d3d4"/>
      <stop offset="1" stop-color="#58595b"/>
    </linearGradient>
    <linearGradient id="Dégradé_sans_nom_202-5" data-name="Dégradé sans nom 202" x1="294.88" y1="154.25" x2="199.09" y2="33" xlink:href="#Dégradé_sans_nom_202"/>
    <linearGradient id="Dégradé_sans_nom_202-6" data-name="Dégradé sans nom 202" x1="273.98" y1="183.11" x2="162.61" y2="42.14" xlink:href="#Dégradé_sans_nom_202"/>
    <linearGradient id="Dégradé_sans_nom_171" data-name="Dégradé sans nom 171" x1="284.38" y1="-2.36" x2="301.46" y2="58.51" gradientUnits="userSpaceOnUse">
      <stop offset="0" stop-color="#58595b"/>
      <stop offset="1" stop-color="#221f20"/>
    </linearGradient>
    <radialGradient id="Dégradé_sans_nom_206" data-name="Dégradé sans nom 206" cx="292.61" cy="56.21" fx="292.61" fy="56.21" r="33.3" gradientUnits="userSpaceOnUse">
      <stop offset="0" stop-color="#58595b"/>
      <stop offset=".19" stop-color="#545557"/>
      <stop offset=".37" stop-color="#494a4c"/>
      <stop offset=".54" stop-color="#363839"/>
      <stop offset=".7" stop-color="#1c1e1f"/>
      <stop offset=".73" stop-color="#191b1b"/>
    </radialGradient>
    <linearGradient id="Dégradé_sans_nom_174" data-name="Dégradé sans nom 174" x1="268.54" y1="15.18" x2="303.52" y2="139.87" gradientUnits="userSpaceOnUse">
      <stop offset="0" stop-color="#818284"/>
      <stop offset=".32" stop-color="#4a4c50"/>
      <stop offset="1" stop-color="#191b1b"/>
    </linearGradient>
    <linearGradient id="Dégradé_sans_nom_170" data-name="Dégradé sans nom 170" x1="196.61" y1="-52.88" x2="248.46" y2="65.75" gradientUnits="userSpaceOnUse">
      <stop offset=".58" stop-color="#221f20"/>
      <stop offset="1" stop-color="#818284"/>
    </linearGradient>
    <linearGradient id="Dégradé_sans_nom_173" data-name="Dégradé sans nom 173" x1="271.99" y1="47.24" x2="227.66" y2="119.62" gradientUnits="userSpaceOnUse">
      <stop offset=".39" stop-color="#818284"/>
      <stop offset=".65" stop-color="#515052"/>
      <stop offset=".88" stop-color="#2f2c2d"/>
      <stop offset="1" stop-color="#221f20"/>
    </linearGradient>
    <linearGradient id="Dégradé_sans_nom_208" data-name="Dégradé sans nom 208" x1="296.6" y1="62.48" x2="276.11" y2="40.59" gradientUnits="userSpaceOnUse">
      <stop offset=".23" stop-color="#58595b"/>
      <stop offset=".37" stop-color="#5b5c5e"/>
      <stop offset=".51" stop-color="#666769"/>
      <stop offset=".64" stop-color="#797a7c"/>
      <stop offset=".77" stop-color="#939496"/>
      <stop offset=".85" stop-color="#a7a9ab"/>
    </linearGradient>
  </defs>
  <g id="Calque_2-2" data-name="Calque 2">
    <g>
      <path class="cls-36" d="M266.46,558.27c-71.18,0-138.09-27.78-188.42-78.23C27.72,429.59,0,362.52,0,291.18c0-30.98,5.25-61.33,15.59-90.22,10-27.92,24.51-53.85,43.14-77.06,37.09-46.21,88.98-79.08,146.21-92.64C219.27,11.66,242.18,0,266.46,0s47.21,11.66,61.53,31.26c57.24,13.57,109.13,46.44,146.21,92.65,18.63,23.21,33.15,49.14,43.14,77.06,10.34,28.89,15.59,59.24,15.59,90.22,0,71.34-27.72,138.41-78.05,188.85-50.33,50.45-117.25,78.23-188.43,78.23Z"/>
      <g>
        <path class="cls-1" d="M139.94,339.5v-151.9c-22.97,28.31-36.73,64.44-36.73,103.8,0,71.59,45.57,132.5,109.18,155.11-42.81-18.87-72.45-59.7-72.45-107.01ZM391.91,184.79l-.02,154.71c0,50.54-33.82,93.68-81.39,110.56,69.45-19.09,120.48-82.89,120.48-158.66,0-40.67-14.7-77.9-39.07-106.61ZM391.91,184.79l-.02,154.71c0,50.54-33.82,93.68-81.39,110.56,69.45-19.09,120.48-82.89,120.48-158.66,0-40.67-14.7-77.9-39.07-106.61ZM139.94,339.5v-151.9c-22.97,28.31-36.73,64.44-36.73,103.8,0,71.59,45.57,132.5,109.18,155.11-42.81-18.87-72.45-59.7-72.45-107.01ZM139.94,339.5v-151.9c-22.97,28.31-36.73,64.44-36.73,103.8,0,71.59,45.57,132.5,109.18,155.11-42.81-18.87-72.45-59.7-72.45-107.01ZM391.91,184.79l-.02,154.71c0,50.54-33.82,93.68-81.39,110.56,69.45-19.09,120.48-82.89,120.48-158.66,0-40.67-14.7-77.9-39.07-106.61ZM139.94,339.5v-151.9c-22.97,28.31-36.73,64.44-36.73,103.8,0,71.59,45.57,132.5,109.18,155.11-42.81-18.87-72.45-59.7-72.45-107.01ZM312.45,133.27c-12.58,10.15-28.57,16.22-45.98,16.22s-33.12-5.96-45.64-15.95c-13.78,4.06-26.8,9.89-38.81,17.22h170.16c-12.28-7.49-25.61-13.42-39.73-17.49ZM391.91,184.79l-.02,154.71c0,50.54-33.82,93.68-81.39,110.56,69.45-19.09,120.48-82.89,120.48-158.66,0-40.67-14.7-77.9-39.07-106.61ZM139.94,339.5v-151.9c-22.97,28.31-36.73,64.44-36.73,103.8,0,71.59,45.57,132.5,109.18,155.11-42.81-18.87-72.45-59.7-72.45-107.01ZM312.45,133.27c-12.58,10.15-28.57,16.22-45.98,16.22s-33.12-5.96-45.64-15.95c-13.78,4.06-26.8,9.89-38.81,17.22h170.16c-12.28-7.49-25.61-13.42-39.73-17.49ZM391.91,184.79l-.02,154.71c0,50.54-33.82,93.68-81.39,110.56,69.45-19.09,120.48-82.89,120.48-158.66,0-40.67-14.7-77.9-39.07-106.61ZM139.94,339.5v-151.9c-22.97,28.31-36.73,64.44-36.73,103.8,0,71.59,45.57,132.5,109.18,155.11-42.81-18.87-72.45-59.7-72.45-107.01ZM312.45,133.27c-12.58,10.15-28.57,16.22-45.98,16.22s-33.12-5.96-45.64-15.95c-13.78,4.06-26.8,9.89-38.81,17.22h170.16c-12.28-7.49-25.61-13.42-39.73-17.49ZM391.91,184.79l-.02,154.71c0,50.54-33.82,93.68-81.39,110.56,69.45-19.09,120.48-82.89,120.48-158.66,0-40.67-14.7-77.9-39.07-106.61ZM139.94,339.5v-151.9c-22.97,28.31-36.73,64.44-36.73,103.8,0,71.59,45.57,132.5,109.18,155.11-42.81-18.87-72.45-59.7-72.45-107.01ZM312.45,133.27c-12.58,10.15-28.57,16.22-45.98,16.22s-33.12-5.96-45.64-15.95c-13.78,4.06-26.8,9.89-38.81,17.22h170.16c-12.28-7.49-25.61-13.42-39.73-17.49ZM391.91,184.79l-.02,154.71c0,50.54-33.82,93.68-81.39,110.56,69.45-19.09,120.48-82.89,120.48-158.66,0-40.67-14.7-77.9-39.07-106.61ZM440.56,104.95c-.55-.52-1.11-1.04-1.67-1.55-.37-.34-.74-.69-1.12-1.03-.68-.62-1.37-1.23-2.06-1.85-.76-.67-1.52-1.35-2.29-2.01-1.37-1.19-2.75-2.36-4.14-3.52-1.36-1.13-2.74-2.25-4.13-3.35-.57-.46-1.15-.91-1.73-1.36-26.48-20.72-57.16-36.31-90.55-45.27,0,0,.01.01.01.02.21.44.41.89.61,1.34,4.06,9.1,6.31,19.18,6.31,29.79,0,19.97-7.98,38.07-20.93,51.29-.07.08-.15.15-.22.23t-.02.02c16.93,5.3,32.74,13.14,46.97,23.06h26.32v22.6c29.23,30.71,47.16,72.19,47.16,117.83,0,66.32-37.87,123.87-93.29,152.38h0c-.67.34-1.34.68-2.02,1.02-1.21.61-2.44,1.2-3.67,1.78-1.92.89-3.86,1.76-5.81,2.58-.98.42-1.96.82-2.95,1.22-2.04.82-4.1,1.6-6.18,2.34h-.01c-2.25.8-4.52,1.56-6.81,2.28-3.44,1.06-6.94,2.03-10.47,2.89-.63.15-1.25.3-1.88.44-1.25.29-2.5.56-3.76.83-2.52.52-5.07.99-7.63,1.4h-.01c-1.36.22-2.73.42-4.11.61-2.06.28-4.14.52-6.23.73-2.08.21-4.18.38-6.29.51-3.66.23-7.35.35-11.06.35s-7.35-.12-10.98-.35c-2.11-.13-4.21-.3-6.29-.51-2.09-.2-4.17-.45-6.23-.73-1.38-.19-2.75-.39-4.11-.61h-.01c-2.56-.41-5.1-.88-7.63-1.4-1.26-.26-2.51-.54-3.76-.83-.63-.14-1.25-.29-1.88-.44-3.53-.86-7.02-1.82-10.47-2.89-2.29-.71-4.56-1.47-6.81-2.28h0c-2.08-.74-4.14-1.52-6.18-2.34-.99-.4-1.97-.8-2.95-1.22-1.95-.82-3.89-1.69-5.81-2.58-.9-.42-1.79-.85-2.68-1.29-.06-.03-.12-.06-.18-.09-.27-.13-.54-.26-.81-.4-.68-.34-1.35-.68-2.02-1.02h-.01c-55.45-28.45-93.37-86-93.37-152.38,0-44.63,17.14-85.28,45.24-115.77v-24.66h28.24c14.05-9.8,29.64-17.56,46.34-22.86-.04-.04-.09-.09-.13-.13-13.12-13.25-21.24-31.49-21.24-51.61,0-9.06,1.64-17.74,4.65-25.75.67-1.78,1.4-3.52,2.2-5.23t.01-.02C91.7,74.5,12.03,173.58,12.03,291.29c0,94.48,51.32,176.94,127.54,220.97,1.21.7,2.43,1.39,3.65,2.07,1.24.69,2.49,1.37,3.74,2.04,1.27.68,2.55,1.35,3.84,2.01,4.05,2.08,8.17,4.05,12.34,5.91h.01c1.47.65,2.95,1.3,4.43,1.93,2.23.95,4.48,1.86,6.74,2.74,1.5.59,3.02,1.16,4.54,1.72.82.3,1.64.59,2.46.89,1.65.58,3.3,1.15,4.96,1.71,1.66.55,3.32,1.09,5,1.61,2.51.78,5.04,1.52,7.58,2.22.85.23,1.7.46,2.55.69,3.52.93,7.07,1.79,10.64,2.57,3.69.8,7.41,1.53,11.16,2.18.96.16,1.92.32,2.88.48,1.93.31,3.86.59,5.8.86,1.02.14,2.04.27,3.06.4,2.05.25,4.1.48,6.15.69,3.09.31,6.19.56,9.31.76,5.4.35,10.86.52,16.35.52s10.89-.17,16.27-.52c3.12-.2,6.22-.45,9.31-.76,2.05-.21,4.1-.44,6.15-.69,1.02-.12,2.04-.26,3.06-.4,1.94-.27,3.87-.55,5.8-.86.96-.15,1.92-.31,2.88-.48,3.75-.64,7.47-1.37,11.16-2.18,3.57-.78,7.12-1.64,10.64-2.57.85-.23,1.7-.46,2.55-.69,2.54-.7,5.07-1.44,7.58-2.22,1.68-.52,3.34-1.06,5-1.61,1.66-.56,3.31-1.13,4.96-1.71.82-.29,1.64-.58,2.46-.89,1.52-.56,3.04-1.13,4.54-1.72,2.27-.88,4.51-1.79,6.74-2.74,1.48-.63,2.96-1.28,4.43-1.93h.01c4.17-1.86,8.29-3.83,12.34-5.91,1.29-.66,2.57-1.33,3.84-2.01,1.25-.67,2.5-1.35,3.75-2.04,1.22-.68,2.44-1.37,3.65-2.07,76.22-44.03,127.54-126.49,127.54-220.97,0-73.55-31.11-139.82-80.86-186.34ZM146.2,157.55v22.8c7.71-8.47,16.3-16.12,25.61-22.8h-25.61ZM391.91,184.79l-.02,154.71c0,50.54-33.82,93.68-81.39,110.56,69.45-19.09,120.48-82.89,120.48-158.66,0-40.67-14.7-77.9-39.07-106.61ZM312.45,133.27c-12.58,10.15-28.57,16.22-45.98,16.22s-33.12-5.96-45.64-15.95c-13.78,4.06-26.8,9.89-38.81,17.22h170.16c-12.28-7.49-25.61-13.42-39.73-17.49ZM139.94,339.5v-151.9c-22.97,28.31-36.73,64.44-36.73,103.8,0,71.59,45.57,132.5,109.18,155.11-42.81-18.87-72.45-59.7-72.45-107.01ZM391.91,184.79l-.02,154.71c0,50.54-33.82,93.68-81.39,110.56,69.45-19.09,120.48-82.89,120.48-158.66,0-40.67-14.7-77.9-39.07-106.61ZM312.45,133.27c-12.58,10.15-28.57,16.22-45.98,16.22s-33.12-5.96-45.64-15.95c-13.78,4.06-26.8,9.89-38.81,17.22h170.16c-12.28-7.49-25.61-13.42-39.73-17.49ZM139.94,339.5v-151.9c-22.97,28.31-36.73,64.44-36.73,103.8,0,71.59,45.57,132.5,109.18,155.11-42.81-18.87-72.45-59.7-72.45-107.01ZM391.91,184.79l-.02,154.71c0,50.54-33.82,93.68-81.39,110.56,69.45-19.09,120.48-82.89,120.48-158.66,0-40.67-14.7-77.9-39.07-106.61ZM312.45,133.27c-12.58,10.15-28.57,16.22-45.98,16.22s-33.12-5.96-45.64-15.95c-13.78,4.06-26.8,9.89-38.81,17.22h170.16c-12.28-7.49-25.61-13.42-39.73-17.49ZM139.94,339.5v-151.9c-22.97,28.31-36.73,64.44-36.73,103.8,0,71.59,45.57,132.5,109.18,155.11-42.81-18.87-72.45-59.7-72.45-107.01ZM391.91,184.79l-.02,154.71c0,50.54-33.82,93.68-81.39,110.56,69.45-19.09,120.48-82.89,120.48-158.66,0-40.67-14.7-77.9-39.07-106.61ZM312.45,133.27c-12.58,10.15-28.57,16.22-45.98,16.22s-33.12-5.96-45.64-15.95c-13.78,4.06-26.8,9.89-38.81,17.22h170.16c-12.28-7.49-25.61-13.42-39.73-17.49ZM139.94,339.5v-151.9c-22.97,28.31-36.73,64.44-36.73,103.8,0,71.59,45.57,132.5,109.18,155.11-42.81-18.87-72.45-59.7-72.45-107.01ZM139.94,339.5v-151.9c-22.97,28.31-36.73,64.44-36.73,103.8,0,71.59,45.57,132.5,109.18,155.11-42.81-18.87-72.45-59.7-72.45-107.01ZM391.91,184.79l-.02,154.71c0,50.54-33.82,93.68-81.39,110.56,69.45-19.09,120.48-82.89,120.48-158.66,0-40.67-14.7-77.9-39.07-106.61ZM391.91,184.79l-.02,154.71c0,50.54-33.82,93.68-81.39,110.56,69.45-19.09,120.48-82.89,120.48-158.66,0-40.67-14.7-77.9-39.07-106.61ZM139.94,339.5v-151.9c-22.97,28.31-36.73,64.44-36.73,103.8,0,71.59,45.57,132.5,109.18,155.11-42.81-18.87-72.45-59.7-72.45-107.01ZM139.94,339.5v-151.9c-22.97,28.31-36.73,64.44-36.73,103.8,0,71.59,45.57,132.5,109.18,155.11-42.81-18.87-72.45-59.7-72.45-107.01ZM391.91,184.79l-.02,154.71c0,50.54-33.82,93.68-81.39,110.56,69.45-19.09,120.48-82.89,120.48-158.66,0-40.67-14.7-77.9-39.07-106.61ZM391.91,184.79l-.02,154.71c0,50.54-33.82,93.68-81.39,110.56,69.45-19.09,120.48-82.89,120.48-158.66,0-40.67-14.7-77.9-39.07-106.61ZM139.94,339.5v-151.9c-22.97,28.31-36.73,64.44-36.73,103.8,0,71.59,45.57,132.5,109.18,155.11-42.81-18.87-72.45-59.7-72.45-107.01Z"/>
        <path class="cls-34" d="M212.39,446.51c-63.61-22.61-109.18-83.52-109.18-155.11,0-39.36,13.76-75.49,36.73-103.8v151.9c0,47.31,29.64,88.14,72.45,107.01Z"/>
        <path class="cls-34" d="M430.98,291.4c0,75.77-51.03,139.57-120.48,158.66,47.57-16.88,81.39-60.02,81.39-110.56l.02-154.71c24.37,28.71,39.07,65.94,39.07,106.61Z"/>
        <path class="cls-34" d="M385.31,244.36l.06-21.91s-.04,0-.06.01v-64.91h-.01v-.02l-.94.02h-53.57s-4.18-.02-4.18-.02v.02h-50.77v-.02h-1.9v.02h-.01l-.03,27.71-.04,37.6h-.01l-.05,32.87h.02l-.04,37.17h-.01l-.04,32.9h.01l-.04,37.07h-.02v8.99s-.06,59.5-.06,59.5c-.05-.02-.1-.03-.14-.03l.12,18.34v3.8h.03c11.22-1.31,21.41-4.6,21.42-4.6l-.02-.08c11.69-3.34,22.62-7.88,32.56-13.5.19-.11.39-.22.59-.33.2-.12.4-.23.58-.34.28-.17.53-.32.73-.44.06-.04.12-.08.18-.11,8.34-4.89,15.95-10.58,22.68-16.96,2.97-2.59,6.26-6.33,8.08-8.48.52-.62.92-1.1,1.15-1.39.08-.1.14-.17.18-.22.04-.05.06-.08.06-.08,6.24-7.57,11.37-15.91,15.23-24.92.32-.73.62-1.46.9-2.16.2-.49.39-.98.58-1.48.55-1.43,1-2.71,1.34-3.72.06-.19.13-.38.19-.57.03-.09.06-.18.09-.26.04-.15.09-.31.15-.46.02-.07.04-.14.06-.2.06-.19.11-.35.15-.48.03-.07.05-.14.06-.2.03-.08.04-.12.04-.12,3.07-9.82,4.7-20.33,4.7-31.43v-15.55h.01l.05-32.87s-.04,0-.06.01v-48.17ZM385.31,244.36l.06-21.91s-.04,0-.06.01v-64.91h-.01v-.02l-.94.02h-53.57s-4.18-.02-4.18-.02v.02h-50.77v-.02h-1.9v.02h-.01l-.03,27.71-.04,37.6h-.01l-.05,32.87h.02l-.04,37.17h-.01l-.04,32.9h.01l-.04,37.07h-.02v8.99s-.06,59.5-.06,59.5c-.05-.02-.1-.03-.14-.03l.12,18.34v3.8h.03c11.22-1.31,21.41-4.6,21.42-4.6l-.02-.08c11.69-3.34,22.62-7.88,32.56-13.5.19-.11.39-.22.59-.33.2-.12.4-.23.58-.34.28-.17.53-.32.73-.44.06-.04.12-.08.18-.11,8.34-4.89,15.95-10.58,22.68-16.96,2.97-2.59,6.26-6.33,8.08-8.48.52-.62.92-1.1,1.15-1.39.08-.1.14-.17.18-.22.04-.05.06-.08.06-.08,6.24-7.57,11.37-15.91,15.23-24.92.32-.73.62-1.46.9-2.16.2-.49.39-.98.58-1.48.55-1.43,1-2.71,1.34-3.72.06-.19.13-.38.19-.57.03-.09.06-.18.09-.26.04-.15.09-.31.15-.46.02-.07.04-.14.06-.2.06-.19.11-.35.15-.48.03-.07.05-.14.06-.2.03-.08.04-.12.04-.12,3.07-9.82,4.7-20.33,4.7-31.43v-15.55h.01l.05-32.87s-.04,0-.06.01v-48.17ZM261.44,233.86h-.44l-.09-76.31h-35.95v72.78c-.08.35-.15.68-.22.98-.08.32-.16.62-.24.9-.07.27-.15.53-.22.76.23.15.46.3.68.46v34.07l-33.87,8.4h-44.89v65.04c0,31.41,14.18,59.82,36.72,80.25v.15s18.44,17.49,41.59,24.75c.15.06.3.1.45.15,11.43,4.07,23.63,6.57,36.28,7.23l-.2-177.57h.4v-42.04ZM182.92,157.53v.02h42.04v-.02h-42.04ZM145.4,233.86v42.04h.8v-42.04h-.8ZM312.45,133.27c-12.58,10.15-28.57,16.22-45.98,16.22s-33.12-5.96-45.64-15.95c-13.78,4.06-26.8,9.89-38.81,17.22h170.16c-12.28-7.49-25.61-13.42-39.73-17.49ZM385.31,244.36l.06-21.91s-.04,0-.06.01v-64.91h-.01v-.02l-.94.02h-53.57s-4.18-.02-4.18-.02v.02h-50.77v-.02h-1.9v.02h-.01l-.03,27.71-.04,37.6h-.01l-.05,32.87h.02l-.04,37.17h-.01l-.04,32.9h.01l-.04,37.07h-.02v8.99s-.06,59.5-.06,59.5c-.05-.02-.1-.03-.14-.03l.12,18.34v3.8h.03c11.22-1.31,21.41-4.6,21.42-4.6l-.02-.08c11.69-3.34,22.62-7.88,32.56-13.5.19-.11.39-.22.59-.33.2-.12.4-.23.58-.34.28-.17.53-.32.73-.44.06-.04.12-.08.18-.11,8.34-4.89,15.95-10.58,22.68-16.96,2.97-2.59,6.26-6.33,8.08-8.48.52-.62.92-1.1,1.15-1.39.08-.1.14-.17.18-.22.04-.05.06-.08.06-.08,6.24-7.57,11.37-15.91,15.23-24.92.32-.73.62-1.46.9-2.16.2-.49.39-.98.58-1.48.55-1.43,1-2.71,1.34-3.72.06-.19.13-.38.19-.57.03-.09.06-.18.09-.26.04-.15.09-.31.15-.46.02-.07.04-.14.06-.2.06-.19.11-.35.15-.48.03-.07.05-.14.06-.2.03-.08.04-.12.04-.12,3.07-9.82,4.7-20.33,4.7-31.43v-15.55h.01l.05-32.87s-.04,0-.06.01v-48.17ZM385.31,244.36l.06-21.91s-.04,0-.06.01v-64.91h-.01v-.02l-.94.02h-53.57s-4.18-.02-4.18-.02v.02h-50.77v-.02h-1.9v.02h-.01l-.03,27.71-.04,37.6h-.01l-.05,32.87h.02l-.04,37.17h-.01l-.04,32.9h.01l-.04,37.07h-.02v8.99s-.06,59.5-.06,59.5c-.05-.02-.1-.03-.14-.03l.12,18.34v3.8h.03c11.22-1.31,21.41-4.6,21.42-4.6l-.02-.08c11.69-3.34,22.62-7.88,32.56-13.5.19-.11.39-.22.59-.33.2-.12.4-.23.58-.34.28-.17.53-.32.73-.44.06-.04.12-.08.18-.11,8.34-4.89,15.95-10.58,22.68-16.96,2.97-2.59,6.26-6.33,8.08-8.48.52-.62.92-1.1,1.15-1.39.08-.1.14-.17.18-.22.04-.05.06-.08.06-.08,6.24-7.57,11.37-15.91,15.23-24.92.32-.73.62-1.46.9-2.16.2-.49.39-.98.58-1.48.55-1.43,1-2.71,1.34-3.72.06-.19.13-.38.19-.57.03-.09.06-.18.09-.26.04-.15.09-.31.15-.46.02-.07.04-.14.06-.2.06-.19.11-.35.15-.48.03-.07.05-.14.06-.2.03-.08.04-.12.04-.12,3.07-9.82,4.7-20.33,4.7-31.43v-15.55h.01l.05-32.87s-.04,0-.06.01v-48.17ZM312.45,133.27c-12.58,10.15-28.57,16.22-45.98,16.22s-33.12-5.96-45.64-15.95c-13.78,4.06-26.8,9.89-38.81,17.22h170.16c-12.28-7.49-25.61-13.42-39.73-17.49ZM261.44,233.86h-.44l-.09-76.31h-35.95v72.78c-.08.35-.15.68-.22.98-.08.32-.16.62-.24.9-.07.27-.15.53-.22.76.23.15.46.3.68.46v34.07l-33.87,8.4h-44.89v65.04c0,31.41,14.18,59.82,36.72,80.25v.15s18.44,17.49,41.59,24.75c.15.06.3.1.45.15,11.43,4.07,23.63,6.57,36.28,7.23l-.2-177.57h.4v-42.04ZM182.92,157.53v.02h42.04v-.02h-42.04ZM145.4,233.86v42.04h.8v-42.04h-.8ZM312.45,133.27c-12.58,10.15-28.57,16.22-45.98,16.22s-33.12-5.96-45.64-15.95c-13.78,4.06-26.8,9.89-38.81,17.22h170.16c-12.28-7.49-25.61-13.42-39.73-17.49ZM385.31,244.36l.06-21.91s-.04,0-.06.01v-64.91h-.01v-.02l-.94.02h-53.57s-4.18-.02-4.18-.02v.02h-50.77v-.02h-1.9v.02h-.01l-.03,27.71-.04,37.6h-.01l-.05,32.87h.02l-.04,37.17h-.01l-.04,32.9h.01l-.04,37.07h-.02v8.99s-.06,59.5-.06,59.5c-.05-.02-.1-.03-.14-.03l.12,18.34v3.8h.03c11.22-1.31,21.41-4.6,21.42-4.6l-.02-.08c11.69-3.34,22.62-7.88,32.56-13.5.19-.11.39-.22.59-.33.2-.12.4-.23.58-.34.28-.17.53-.32.73-.44.06-.04.12-.08.18-.11,8.34-4.89,15.95-10.58,22.68-16.96,2.97-2.59,6.26-6.33,8.08-8.48.52-.62.92-1.1,1.15-1.39.08-.1.14-.17.18-.22.04-.05.06-.08.06-.08,6.24-7.57,11.37-15.91,15.23-24.92.32-.73.62-1.46.9-2.16.2-.49.39-.98.58-1.48.55-1.43,1-2.71,1.34-3.72.06-.19.13-.38.19-.57.03-.09.06-.18.09-.26.04-.15.09-.31.15-.46.02-.07.04-.14.06-.2.06-.19.11-.35.15-.48.03-.07.05-.14.06-.2.03-.08.04-.12.04-.12,3.07-9.82,4.7-20.33,4.7-31.43v-15.55h.01l.05-32.87s-.04,0-.06.01v-48.17ZM330.45,68.8c-.1-.97-.24-1.93-.39-2.88-1.26-7.94-3.97-15.4-7.85-22.1-.31-.54-.64-1.08-.97-1.62-2.21-.48-4.43-.94-6.66-1.37-1.49-.28-2.98-.55-4.48-.81-1.49-.25-2.99-.5-4.5-.73-.75-.11-1.51-.22-2.26-.33t-.01-.01c-.24-.03-.46-.07-.7-.11h-.05c-.11-.01-.23-.03-.34-.05-.11-.01-.23-.02-.34-.04-1.02-.14-2.05-.28-3.08-.41h-.08c-1.28-.17-2.55-.32-3.84-.46-3.93-.44-7.89-.78-11.87-1.03-5.38-.35-10.8-.52-16.27-.52-.59,0-1.18,0-1.77.01-.73,0-1.45.01-2.17.02-4.16.06-8.3.23-12.41.49-2.86.18-5.71.41-8.55.68-1.28.12-2.56.26-3.83.4-.64.08-1.28.15-1.91.23-.63.06-1.26.14-1.89.22-6.4.82-12.72,1.87-18.95,3.15-1.25.25-2.49.52-3.73.8t-.01.02c-.98,1.58-1.88,3.2-2.71,4.86-4.37,8.68-6.82,18.49-6.82,28.86,0,4.87.54,9.62,1.57,14.18l.38,1.6s0,.02.02.03c3.29,13.08,10.59,24.56,20.51,33.08t.01,0s.06.07.1.1h.01c.7.61,1.42,1.2,2.15,1.77.27.21.55.42.83.63,10.8,8.18,24.25,13.03,38.84,13.03,16.08,0,30.79-5.89,42.08-15.64h.01c.08-.07.16-.15.25-.22,13.53-11.81,22.09-29.18,22.09-48.56,0-2.46-.14-4.88-.41-7.27ZM453.11,117.61c-.11-.11-.22-.23-.33-.35-1.49-1.6-3.01-3.18-4.54-4.74-.02-.02-.03-.03-.05-.05-10.38-10.57-21.68-20.24-33.77-28.87-.36-.26-.73-.52-1.1-.78-24.07-17-51.22-29.93-80.44-37.79.21.44.41.89.61,1.34,4.06,9.1,6.31,19.18,6.31,29.79,0,19.97-7.98,38.07-20.93,51.29-.07.08-.15.15-.22.23t-.02.02c16.93,5.3,32.74,13.14,46.97,23.06h26.32v22.6c29.23,30.71,47.16,72.19,47.16,117.83,0,66.32-37.87,123.87-93.29,152.38h0c-.67.34-1.34.68-2.02,1.02-1.21.61-2.44,1.2-3.67,1.78-1.92.89-3.86,1.76-5.81,2.58-.98.42-1.96.82-2.95,1.22-2.04.82-4.1,1.6-6.18,2.34h-.01c-2.25.8-4.52,1.56-6.81,2.28-3.44,1.06-6.94,2.03-10.47,2.89-.63.15-1.25.3-1.88.44-1.25.29-2.5.56-3.76.83-2.52.52-5.07.99-7.63,1.4h-.01c-1.36.22-2.73.42-4.11.61-2.06.28-4.14.52-6.23.73-2.08.21-4.18.38-6.29.51-3.66.23-7.35.35-11.06.35s-7.35-.12-10.98-.35c-2.11-.13-4.21-.3-6.29-.51-2.09-.2-4.17-.45-6.23-.73-1.38-.19-2.75-.39-4.11-.61h-.01c-2.56-.41-5.1-.88-7.63-1.4-1.26-.27-2.51-.54-3.76-.83-.63-.14-1.25-.29-1.88-.44-3.53-.86-7.02-1.82-10.47-2.89-2.29-.72-4.56-1.48-6.81-2.28h0c-2.08-.74-4.14-1.52-6.18-2.34-.99-.4-1.97-.8-2.95-1.22-1.95-.82-3.89-1.69-5.81-2.58-.9-.42-1.79-.85-2.68-1.29-.06-.03-.12-.06-.18-.09-.27-.13-.54-.26-.81-.4-.68-.34-1.35-.68-2.02-1.02h-.01c-55.42-28.51-93.29-86.06-93.29-152.38,0-44.59,17.11-85.2,45.16-115.68v-24.75h28.24c14.05-9.8,29.64-17.56,46.34-22.86-.04-.04-.09-.09-.13-.13-13.12-13.25-21.24-31.49-21.24-51.61,0-9.06,1.64-17.74,4.65-25.75.67-1.78,1.4-3.52,2.2-5.23t.01-.02C91.7,74.5,12.03,173.58,12.03,291.29c0,94.48,51.32,176.94,127.54,220.97,1.21.7,2.43,1.39,3.65,2.07,1.24.69,2.49,1.37,3.74,2.04,1.27.68,2.55,1.35,3.84,2.01,4.05,2.08,8.17,4.05,12.34,5.91h.01c1.47.65,2.95,1.3,4.43,1.93,2.23.95,4.48,1.86,6.74,2.74,1.5.59,3.02,1.16,4.54,1.72.82.3,1.64.59,2.46.89,1.65.58,3.3,1.15,4.96,1.71,1.66.55,3.32,1.09,5,1.61,2.51.78,5.04,1.52,7.58,2.22.85.23,1.7.46,2.55.69,3.52.93,7.07,1.79,10.64,2.57,3.69.8,7.41,1.53,11.16,2.18.96.16,1.92.32,2.88.48,1.93.31,3.86.59,5.8.86,1.02.14,2.04.27,3.06.4,2.05.25,4.1.48,6.15.69,3.09.31,6.19.56,9.31.76,5.4.35,10.86.52,16.35.52s10.89-.17,16.27-.52c3.12-.2,6.22-.45,9.31-.76,2.05-.21,4.1-.44,6.15-.69,1.02-.12,2.04-.26,3.06-.4,1.94-.27,3.87-.55,5.8-.86.96-.15,1.92-.31,2.88-.48,3.75-.64,7.47-1.37,11.16-2.18,3.57-.78,7.12-1.64,10.64-2.57.85-.23,1.7-.46,2.55-.69,2.54-.7,5.07-1.44,7.58-2.22,1.68-.52,3.34-1.06,5-1.61,1.66-.56,3.31-1.13,4.96-1.71.82-.29,1.64-.58,2.46-.89,1.52-.56,3.04-1.13,4.54-1.72,2.26-.89,4.51-1.8,6.74-2.74,1.48-.63,2.96-1.28,4.43-1.93h.01c4.17-1.86,8.29-3.83,12.34-5.91,1.29-.66,2.57-1.33,3.84-2.01,1.25-.67,2.5-1.35,3.75-2.04,1.22-.68,2.44-1.37,3.65-2.07,76.19-44.1,127.45-126.54,127.45-220.97,0-67.1-25.89-128.15-68.22-173.68ZM182.92,157.53v.02h-36.72v76.31h-.8v42.04h.8v65.04c0,31.41,14.18,59.82,36.72,80.25v.15s18.44,17.49,41.59,24.75c.15.06.3.1.45.15,11.43,4.07,23.63,6.57,36.28,7.23l-.2-177.57h.4v-42.04h-.44l-.09-76.31h-35.95v-.02h-42.04ZM145.4,233.86v42.04h.8v-42.04h-.8ZM182.92,157.53v.02h42.04v-.02h-42.04ZM261.44,233.86h-.44l-.09-76.31h-35.95v72.78c-.08.35-.15.68-.22.98-.08.32-.16.62-.24.9-.07.27-.15.53-.22.76.23.15.46.3.68.46v34.07l-33.87,8.4h-44.89v65.04c0,31.41,14.18,59.82,36.72,80.25v.15s18.44,17.49,41.59,24.75c.15.06.3.1.45.15,11.43,4.07,23.63,6.57,36.28,7.23l-.2-177.57h.4v-42.04ZM312.45,133.27c-12.58,10.15-28.57,16.22-45.98,16.22s-33.12-5.96-45.64-15.95c-13.78,4.06-26.8,9.89-38.81,17.22h170.16c-12.28-7.49-25.61-13.42-39.73-17.49ZM385.31,244.36l.06-21.91s-.04,0-.06.01v-64.91h-.01v-.02l-.94.02h-53.57s-4.18-.02-4.18-.02v.02h-50.77v-.02h-1.9v.02h-.01l-.03,27.71-.04,37.6h-.01l-.05,32.87h.02l-.04,37.17h-.01l-.04,32.9h.01l-.04,37.07h-.02v8.99s-.06,59.5-.06,59.5c-.05-.02-.1-.03-.14-.03l.12,18.34v3.8h.03c11.22-1.31,21.41-4.6,21.42-4.6l-.02-.08c11.69-3.34,22.62-7.88,32.56-13.5.19-.11.39-.22.59-.33.2-.12.4-.23.58-.34.28-.17.53-.32.73-.44.06-.04.12-.08.18-.11,8.34-4.89,15.95-10.58,22.68-16.96,2.97-2.59,6.26-6.33,8.08-8.48.52-.62.92-1.1,1.15-1.39.08-.1.14-.17.18-.22.04-.05.06-.08.06-.08,6.24-7.57,11.37-15.91,15.23-24.92.32-.73.62-1.46.9-2.16.2-.49.39-.98.58-1.48.55-1.43,1-2.71,1.34-3.72.06-.19.13-.38.19-.57.03-.09.06-.18.09-.26.04-.15.09-.31.15-.46.02-.07.04-.14.06-.2.06-.19.11-.35.15-.48.03-.07.05-.14.06-.2.03-.08.04-.12.04-.12,3.07-9.82,4.7-20.33,4.7-31.43v-15.55h.01l.05-32.87s-.04,0-.06.01v-48.17ZM385.31,244.36l.06-21.91s-.04,0-.06.01v-64.91h-.01v-.02l-.94.02h-53.57s-4.18-.02-4.18-.02v.02h-50.77v-.02h-1.9v.02h-.01l-.03,27.71-.04,37.6h-.01l-.05,32.87h.02l-.04,37.17h-.01l-.04,32.9h.01l-.04,37.07h-.02v8.99s-.06,59.5-.06,59.5c-.05-.02-.1-.03-.14-.03l.12,18.34v3.8h.03c11.22-1.31,21.41-4.6,21.42-4.6l-.02-.08c11.69-3.34,22.62-7.88,32.56-13.5.19-.11.39-.22.59-.33.2-.12.4-.23.58-.34.28-.17.53-.32.73-.44.06-.04.12-.08.18-.11,8.34-4.89,15.95-10.58,22.68-16.96,2.97-2.59,6.26-6.33,8.08-8.48.52-.62.92-1.1,1.15-1.39.08-.1.14-.17.18-.22.04-.05.06-.08.06-.08,6.24-7.57,11.37-15.91,15.23-24.92.32-.73.62-1.46.9-2.16.2-.49.39-.98.58-1.48.55-1.43,1-2.71,1.34-3.72.06-.19.13-.38.19-.57.03-.09.06-.18.09-.26.04-.15.09-.31.15-.46.02-.07.04-.14.06-.2.06-.19.11-.35.15-.48.03-.07.05-.14.06-.2.03-.08.04-.12.04-.12,3.07-9.82,4.7-20.33,4.7-31.43v-15.55h.01l.05-32.87s-.04,0-.06.01v-48.17ZM312.45,133.27c-12.58,10.15-28.57,16.22-45.98,16.22s-33.12-5.96-45.64-15.95c-13.78,4.06-26.8,9.89-38.81,17.22h170.16c-12.28-7.49-25.61-13.42-39.73-17.49ZM145.4,233.86v42.04h.8v-42.04h-.8ZM182.92,157.53v.02h42.04v-.02h-42.04ZM261.44,233.86h-.44l-.09-76.31h-35.95v72.78c-.08.35-.15.68-.22.98-.08.32-.16.62-.24.9-.07.27-.15.53-.22.76.23.15.46.3.68.46v34.07l-33.87,8.4h-44.89v65.04c0,31.41,14.18,59.82,36.72,80.25v.15s18.44,17.49,41.59,24.75c.15.06.3.1.45.15,11.43,4.07,23.63,6.57,36.28,7.23l-.2-177.57h.4v-42.04ZM312.45,133.27c-12.58,10.15-28.57,16.22-45.98,16.22s-33.12-5.96-45.64-15.95c-13.78,4.06-26.8,9.89-38.81,17.22h170.16c-12.28-7.49-25.61-13.42-39.73-17.49ZM385.31,244.36l.06-21.91s-.04,0-.06.01v-64.91h-.01v-.02l-.94.02h-53.57s-4.18-.02-4.18-.02v.02h-50.77v-.02h-1.9v.02h-.01l-.03,27.71-.04,37.6h-.01l-.05,32.87h.02l-.04,37.17h-.01l-.04,32.9h.01l-.04,37.07h-.02v8.99s-.06,59.5-.06,59.5c-.05-.02-.1-.03-.14-.03l.12,18.34v3.8h.03c11.22-1.31,21.41-4.6,21.42-4.6l-.02-.08c11.69-3.34,22.62-7.88,32.56-13.5.19-.11.39-.22.59-.33.2-.12.4-.23.58-.34.28-.17.53-.32.73-.44.06-.04.12-.08.18-.11,8.34-4.89,15.95-10.58,22.68-16.96,2.97-2.59,6.26-6.33,8.08-8.48.52-.62.92-1.1,1.15-1.39.08-.1.14-.17.18-.22.04-.05.06-.08.06-.08,6.24-7.57,11.37-15.91,15.23-24.92.32-.73.62-1.46.9-2.16.2-.49.39-.98.58-1.48.55-1.43,1-2.71,1.34-3.72.06-.19.13-.38.19-.57.03-.09.06-.18.09-.26.04-.15.09-.31.15-.46.02-.07.04-.14.06-.2.06-.19.11-.35.15-.48.03-.07.05-.14.06-.2.03-.08.04-.12.04-.12,3.07-9.82,4.7-20.33,4.7-31.43v-15.55h.01l.05-32.87s-.04,0-.06.01v-48.17ZM385.31,244.36l.06-21.91s-.04,0-.06.01v-64.91h-.01v-.02l-.94.02h-53.57s-4.18-.02-4.18-.02v.02h-50.77v-.02h-1.9v.02h-.01l-.03,27.71-.04,37.6h-.01l-.05,32.87h.02l-.04,37.17h-.01l-.04,32.9h.01l-.04,37.07h-.02v8.99s-.06,59.5-.06,59.5c-.05-.02-.1-.03-.14-.03l.12,18.34v3.8h.03c11.22-1.31,21.41-4.6,21.42-4.6l-.02-.08c11.69-3.34,22.62-7.88,32.56-13.5.19-.11.39-.22.59-.33.2-.12.4-.23.58-.34.28-.17.53-.32.73-.44.06-.04.12-.08.18-.11,8.34-4.89,15.95-10.58,22.68-16.96,2.97-2.59,6.26-6.33,8.08-8.48.52-.62.92-1.1,1.15-1.39.08-.1.14-.17.18-.22.04-.05.06-.08.06-.08,6.24-7.57,11.37-15.91,15.23-24.92.32-.73.62-1.46.9-2.16.2-.49.39-.98.58-1.48.55-1.43,1-2.71,1.34-3.72.06-.19.13-.38.19-.57.03-.09.06-.18.09-.26.04-.15.09-.31.15-.46.02-.07.04-.14.06-.2.06-.19.11-.35.15-.48.03-.07.05-.14.06-.2.03-.08.04-.12.04-.12,3.07-9.82,4.7-20.33,4.7-31.43v-15.55h.01l.05-32.87s-.04,0-.06.01v-48.17ZM312.45,133.27c-12.58,10.15-28.57,16.22-45.98,16.22s-33.12-5.96-45.64-15.95c-13.78,4.06-26.8,9.89-38.81,17.22h170.16c-12.28-7.49-25.61-13.42-39.73-17.49ZM145.4,233.86v42.04h.8v-42.04h-.8ZM182.92,157.53v.02h42.04v-.02h-42.04ZM261.44,233.86h-.44l-.09-76.31h-35.95v72.78c-.08.35-.15.68-.22.98-.08.32-.16.62-.24.9-.07.27-.15.53-.22.76.23.15.46.3.68.46v34.07l-33.87,8.4h-44.89v65.04c0,31.41,14.18,59.82,36.72,80.25v.15s18.44,17.49,41.59,24.75c.15.06.3.1.45.15,11.43,4.07,23.63,6.57,36.28,7.23l-.2-177.57h.4v-42.04Z"/>
        <path class="cls-32" d="M212.39,446.51c-63.61-22.61-109.18-83.52-109.18-155.11,0-39.36,13.76-75.49,36.73-103.8v151.9c0,47.31,29.64,88.14,72.45,107.01Z"/>
        <path class="cls-32" d="M171.81,157.55c-9.31,6.68-17.9,14.33-25.61,22.8v-11.39c4.11-4.01,8.41-7.82,12.9-11.41h12.71Z"/>
        <path class="cls-32" d="M352.18,150.76h-170.16c12.01-7.33,25.03-13.16,38.81-17.22,12.52,9.99,28.39,15.95,45.64,15.95s33.4-6.07,45.98-16.22c14.12,4.07,27.45,10,39.73,17.49Z"/>
        <path class="cls-32" d="M430.98,291.4c0,75.77-51.03,139.57-120.48,158.66,47.57-16.88,81.39-60.02,81.39-110.56l.02-154.71c24.37,28.71,39.07,65.94,39.07,106.61Z"/>
        <path class="cls-35" d="M385.3,157.55v-.02l-.94.02h-9.6c1.69,1.35,3.36,2.74,5,4.16.2.17.41.35.61.53.93.8,1.84,1.62,2.75,2.45.74.66,1.46,1.33,2.18,2.02.01,0,.01.01.01.01v-9.17h-.01ZM385.3,157.55v-.02l-.94.02h-9.6c1.69,1.35,3.36,2.74,5,4.16.2.17.41.35.61.53.93.8,1.84,1.62,2.75,2.45.74.66,1.46,1.33,2.18,2.02.01,0,.01.01.01.01v-9.17h-.01ZM385.3,157.55v-.02l-.94.02h-9.6c1.69,1.35,3.36,2.74,5,4.16.2.17.41.35.61.53.93.8,1.84,1.62,2.75,2.45.74.66,1.46,1.33,2.18,2.02.01,0,.01.01.01.01v-9.17h-.01ZM385.3,157.55v-.02l-.94.02h-9.6c1.69,1.35,3.36,2.74,5,4.16.2.17.41.35.61.53.93.8,1.84,1.62,2.75,2.45.74.66,1.46,1.33,2.18,2.02.01,0,.01.01.01.01v-9.17h-.01ZM385.3,157.55v-.02l-.94.02h-9.6c1.69,1.35,3.36,2.74,5,4.16.2.17.41.35.61.53.93.8,1.84,1.62,2.75,2.45.74.66,1.46,1.33,2.18,2.02.01,0,.01.01.01.01v-9.17h-.01ZM330.45,68.8c-.1-.97-.24-1.93-.39-2.88-1.26-7.94-3.97-15.4-7.85-22.1-.31-.54-.64-1.08-.97-1.62,0,0-.01,0-.01-.02-2.21-.48-4.42-.94-6.65-1.35-1.49-.28-2.98-.55-4.48-.81-1.49-.25-2.99-.5-4.5-.73-.76-.13-1.52-.24-2.28-.35h-.01c-.22-.04-.45-.07-.68-.1h-.05c-.11-.01-.23-.03-.34-.05s-.22-.04-.34-.05c-1.02-.14-2.05-.28-3.08-.4h-.08c-1.28-.17-2.55-.32-3.84-.46-3.93-.44-7.89-.78-11.87-1.03-5.38-.35-10.8-.52-16.27-.52-.59,0-1.18,0-1.77.01-.73,0-1.45.01-2.17.02-4.16.06-8.3.23-12.41.49-2.86.18-5.71.41-8.55.68-1.28.12-2.56.26-3.83.4-.64.08-1.28.15-1.91.23-.64.07-1.27.15-1.91.24h-.01c-6.38.81-12.68,1.86-18.9,3.14-1.26.26-2.51.53-3.76.81-.98,1.58-1.88,3.2-2.71,4.86-4.37,8.68-6.82,18.49-6.82,28.86,0,4.87.54,9.62,1.57,14.18l.38,1.6s0,.02.02.03c3.29,13.08,10.59,24.56,20.51,33.08t.01,0s.06.07.1.1h.01c1.55-.39,3.1-.76,4.67-1.11,8-1.78,16.21-3,24.58-3.63,4.33-.32,8.7-.49,13.11-.49,10.17,0,20.13.88,29.81,2.56,3.9.68,7.75,1.48,11.56,2.42.06.01.11.03.17.04h.01c.08-.07.16-.15.25-.22,13.53-11.81,22.09-29.18,22.09-48.56,0-2.46-.14-4.88-.41-7.27ZM440.56,104.95c-.55-.52-1.11-1.04-1.67-1.55-.37-.34-.74-.69-1.12-1.03-.68-.62-1.37-1.23-2.06-1.85-.76-.67-1.52-1.35-2.29-2.01-1.37-1.19-2.75-2.36-4.14-3.52-1.36-1.13-2.74-2.25-4.13-3.35-.57-.46-1.15-.91-1.73-1.36-26.48-20.72-57.16-36.31-90.55-45.27,0,0,.01.01.01.02.21.44.41.89.61,1.34,4.06,9.1,6.31,19.18,6.31,29.79,0,19.97-7.98,38.07-20.93,51.29-.07.08-.15.15-.22.23,16.96,5.3,32.78,13.15,47.03,23.08h26.24v22.52c29.28,30.72,47.24,72.23,47.24,117.91,0,66.38-37.92,123.93-93.37,152.38h0c-.67.34-1.34.68-2.02,1.02-1.21.61-2.44,1.2-3.67,1.78-1.92.89-3.86,1.76-5.81,2.58-.98.42-1.96.82-2.95,1.22-2.04.82-4.1,1.6-6.18,2.34h-.01c-2.25.81-4.52,1.57-6.81,2.28-3.44,1.06-6.94,2.03-10.47,2.89-.63.15-1.25.3-1.88.44-1.25.29-2.5.57-3.76.83-2.52.52-5.07.99-7.63,1.4h-.01c-1.36.22-2.73.42-4.11.61-2.06.28-4.14.52-6.23.73-2.08.21-4.18.38-6.29.51-3.66.23-7.35.35-11.06.35s-7.35-.12-10.98-.35c-2.11-.13-4.21-.3-6.29-.51-2.09-.2-4.17-.45-6.23-.73-1.38-.19-2.75-.39-4.11-.61h-.01c-2.56-.41-5.1-.88-7.63-1.4-1.26-.27-2.51-.54-3.76-.83-.63-.14-1.25-.29-1.88-.44-3.53-.86-7.02-1.82-10.47-2.89-2.29-.72-4.56-1.48-6.81-2.28h0c-2.08-.74-4.14-1.52-6.18-2.34-.99-.4-1.97-.8-2.95-1.22-1.95-.82-3.89-1.69-5.81-2.58-.9-.42-1.79-.85-2.68-1.29-.06-.03-.12-.06-.18-.09-.27-.13-.54-.26-.81-.4-.68-.34-1.35-.68-2.02-1.02h-.01c-55.42-28.51-93.29-86.06-93.29-152.38,0-44.59,17.11-85.2,45.16-115.68v-24.75h28.24c14.05-9.8,29.64-17.56,46.34-22.86-.04-.04-.09-.09-.13-.13-13.12-13.25-21.24-31.49-21.24-51.61,0-9.06,1.64-17.74,4.65-25.75.67-1.78,1.4-3.52,2.2-5.23C91.74,74.55,12.11,173.61,12.11,291.29c0,94.44,51.27,176.88,127.46,220.97,1.21.7,2.43,1.39,3.65,2.07,1.24.69,2.49,1.37,3.74,2.04,1.27.68,2.55,1.35,3.84,2.01,4.05,2.08,8.17,4.05,12.34,5.91h.01c1.47.65,2.95,1.3,4.43,1.93,2.23.94,4.48,1.85,6.74,2.74,1.5.59,3.02,1.16,4.54,1.72.82.3,1.64.59,2.46.89,1.65.58,3.3,1.15,4.96,1.71,1.66.55,3.32,1.09,5,1.61,2.51.78,5.04,1.52,7.58,2.22.85.23,1.7.46,2.55.69,3.52.93,7.07,1.79,10.64,2.57,3.69.8,7.41,1.53,11.16,2.18.96.16,1.92.32,2.88.48,1.93.31,3.86.59,5.8.86,1.02.14,2.04.27,3.06.4,2.05.25,4.1.48,6.15.69,3.09.31,6.19.56,9.31.76,5.4.35,10.86.52,16.35.52s10.89-.17,16.27-.52c3.12-.2,6.22-.45,9.31-.76,2.05-.21,4.1-.44,6.15-.69,1.02-.12,2.04-.26,3.06-.4,1.94-.27,3.87-.55,5.8-.86.96-.15,1.92-.31,2.88-.48,3.75-.64,7.47-1.37,11.16-2.18,3.57-.78,7.12-1.64,10.64-2.57.85-.23,1.7-.46,2.55-.69,2.54-.7,5.07-1.44,7.58-2.22,1.68-.52,3.34-1.06,5-1.61,1.66-.56,3.31-1.13,4.96-1.71.82-.29,1.64-.58,2.46-.89,1.52-.56,3.04-1.13,4.54-1.72,2.27-.88,4.51-1.79,6.74-2.74,1.48-.63,2.96-1.28,4.43-1.93h.01c4.17-1.86,8.29-3.83,12.34-5.91,1.29-.66,2.57-1.33,3.84-2.01,1.25-.67,2.5-1.35,3.75-2.04,1.22-.68,2.44-1.37,3.65-2.07,76.22-44.03,127.54-126.49,127.54-220.97,0-73.55-31.11-139.82-80.86-186.34ZM146.2,157.55v11.5c4.13-4.05,8.46-7.89,12.98-11.5h-12.98ZM385.3,157.55v-.02l-.94.02h-9.6c1.69,1.35,3.36,2.74,5,4.16.2.17.41.35.61.53.93.8,1.84,1.62,2.75,2.45.74.66,1.46,1.33,2.18,2.02.01,0,.01.01.01.01v-9.17h-.01ZM385.3,157.55v-.02l-.94.02h-9.6c1.69,1.35,3.36,2.74,5,4.16.2.17.41.35.61.53.93.8,1.84,1.62,2.75,2.45.74.66,1.46,1.33,2.18,2.02.01,0,.01.01.01.01v-9.17h-.01ZM385.3,157.55v-.02l-.94.02h-9.6c1.69,1.35,3.36,2.74,5,4.16.2.17.41.35.61.53.93.8,1.84,1.62,2.75,2.45.74.66,1.46,1.33,2.18,2.02.01,0,.01.01.01.01v-9.17h-.01ZM385.3,157.55v-.02l-.94.02h-9.6c1.69,1.35,3.36,2.74,5,4.16.2.17.41.35.61.53.93.8,1.84,1.62,2.75,2.45.74.66,1.46,1.33,2.18,2.02.01,0,.01.01.01.01v-9.17h-.01ZM385.3,157.55v9.16s.01.01.01.01v-9.17h-.01Z"/>
        <path class="cls-2" d="M330.45,68.8c-.1-.97-.24-1.93-.39-2.88-1.26-7.94-3.97-15.4-7.85-22.1-.31-.54-.64-1.08-.97-1.62,0,0-.01,0-.01-.02-2.52-4.06-5.48-7.83-8.82-11.23-4.54-4.62-9.77-8.55-15.53-11.62-.5-.27-1-.53-1.51-.79-.58-.29-1.16-.57-1.75-.85-.52-.25-1.05-.49-1.59-.72-.04-.02-.08-.04-.12-.05-.29-.13-.58-.25-.88-.38-1.88-.79-3.82-1.49-5.8-2.09-.61-.19-1.23-.37-1.85-.54-.78-.22-1.57-.42-2.36-.6-2.29-.54-4.62-.96-6.99-1.24l.1.03s.01,0,.04.01c-2.54-.3-5.12-.46-7.74-.46-5.71,0-11.25.74-16.53,2.15v-.09c-11.45,3-21.65,9.08-29.69,17.29-2.67,2.73-5.1,5.7-7.26,8.87l.13.1c-.53.77-1.04,1.56-1.53,2.36t-.01.02c-.98,1.58-1.88,3.2-2.71,4.86-4.37,8.68-6.82,18.49-6.82,28.86,0,4.87.54,9.62,1.57,14.18l.38,1.6s0,.02.02.03c3.29,13.08,10.59,24.56,20.51,33.08t.01,0s.06.07.1.1h.01c.7.61,1.42,1.2,2.15,1.77.27.21.55.42.83.63,10.8,8.18,24.25,13.03,38.84,13.03,16.08,0,30.79-5.89,42.08-15.64h.01c.08-.07.16-.15.25-.22,13.53-11.81,22.09-29.18,22.09-48.56,0-2.46-.14-4.88-.41-7.27Z"/>
        <path class="cls-2" d="M330.45,68.8c-.1-.97-.24-1.93-.39-2.88-1.26-7.94-3.97-15.4-7.85-22.1-.31-.54-.64-1.08-.97-1.62,0,0-.01,0-.01-.02-2.21-.48-4.42-.94-6.65-1.35-1.49-.28-2.98-.55-4.48-.81-1.49-.25-2.99-.5-4.5-.73-.76-.13-1.52-.24-2.28-.35h-.01c-.22-.04-.45-.07-.68-.1h-.05c-.11-.01-.23-.03-.34-.05s-.22-.04-.34-.05c-1.02-.14-2.05-.28-3.08-.4h-.08c-1.28-.17-2.55-.32-3.84-.46-3.93-.44-7.89-.78-11.87-1.03-5.38-.35-10.8-.52-16.27-.52-.59,0-1.18,0-1.77.01-.73,0-1.45.01-2.17.02-4.16.06-8.3.23-12.41.49-2.86.18-5.71.41-8.55.68-1.28.12-2.56.26-3.83.4-.64.08-1.28.15-1.91.23-.63.06-1.26.14-1.89.22-6.4.82-12.72,1.87-18.95,3.15-1.25.25-2.49.52-3.73.8t-.01.02c-.98,1.58-1.88,3.2-2.71,4.86-4.37,8.68-6.82,18.49-6.82,28.86,0,4.87.54,9.62,1.57,14.18l.38,1.6s0,.02.02.03c3.29,13.08,10.59,24.56,20.51,33.08t.01,0s.06.07.1.1h.01c.7.61,1.42,1.2,2.15,1.77.27.21.55.42.83.63,10.8,8.18,24.25,13.03,38.84,13.03,16.08,0,30.79-5.89,42.08-15.64h.01c.08-.07.16-.15.25-.22,13.53-11.81,22.09-29.18,22.09-48.56,0-2.46-.14-4.88-.41-7.27Z"/>
        <path class="cls-2" d="M312.41,30.95c-4.54-4.62-9.77-8.55-15.53-11.62-.5-.27-1-.53-1.51-.79-.58-.29-1.16-.57-1.75-.85-.52-.25-1.05-.49-1.59-.72-.04-.02-.08-.04-.12-.05-.29-.13-.58-.25-.88-.38-1.88-.79-3.82-1.49-5.8-2.09-.61-.19-1.23-.37-1.85-.54-.78-.22-1.57-.42-2.36-.6-2.29-.54-4.62-.96-6.99-1.24l.1.03s.01,0,.04.01c-2.54-.3-5.12-.46-7.74-.46-5.71,0-11.25.74-16.53,2.15v-.09c-11.45,3-21.65,9.08-29.69,17.29-2.67,2.73-5.1,5.7-7.26,8.87l.13.1c-.53.77-1.04,1.56-1.53,2.36,1.24-.28,2.48-.55,3.73-.8,6.23-1.28,12.55-2.33,18.95-3.15.63-.08,1.26-.16,1.89-.22.63-.08,1.27-.15,1.91-.23,1.27-.14,2.55-.28,3.83-.4,2.84-.27,5.69-.5,8.55-.68,4.11-.26,8.25-.43,12.41-.49.72-.01,1.44-.02,2.17-.02.59-.01,1.18-.01,1.77-.01,5.47,0,10.89.17,16.27.52,3.98.25,7.94.59,11.87,1.03,1.29.14,2.56.29,3.84.46h.08c1.03.12,2.06.26,3.08.4.12.01.23.03.34.05s.23.04.34.05h.05c.23.03.46.06.68.1h.01c.76.11,1.52.22,2.28.35,1.51.23,3.01.48,4.5.73,1.5.26,2.99.53,4.48.81,2.23.41,4.44.87,6.65,1.35-2.52-4.06-5.48-7.83-8.82-11.23Z"/>
        <path class="cls-13" d="M326.32,33.78c-13.28-18.72-35.14-30.94-59.85-30.94s-46.56,12.22-59.84,30.94C89.86,60.94,2.84,165.88,2.84,291.19c0,145.94,118.03,264.25,263.63,264.25s263.64-118.31,263.64-264.25c0-125.31-87.02-230.24-203.79-257.41ZM208.83,47.21c.83-1.66,1.73-3.28,2.71-4.86t.01-.02c.49-.8,1-1.59,1.53-2.36l-.13-.1c2.16-3.17,4.59-6.14,7.26-8.87,8.04-8.21,18.24-14.29,29.7-17.29v.05s0,.01,0,.04c5.28-1.41,10.82-2.15,16.53-2.15,2.62,0,5.2.16,7.74.46-.03-.01-.04-.01-.04-.01l-.1-.03c2.37.28,4.7.7,6.99,1.24.79.18,1.58.38,2.36.6.62.17,1.24.35,1.85.54,1.98.6,3.92,1.3,5.8,2.09.3.13.59.25.88.38.04.01.08.03.12.05.54.23,1.07.47,1.59.72.59.27,1.17.56,1.75.85.51.25,1.01.51,1.51.79,5.76,3.07,10.99,7,15.53,11.62,3.34,3.4,6.3,7.17,8.82,11.23,0,.01.01.02.01.02.33.54.66,1.08.97,1.62,3.88,6.7,6.59,14.16,7.85,22.1.15.95.29,1.91.39,2.88.27,2.39.41,4.81.41,7.27,0,19.38-8.56,36.75-22.09,48.56-.09.07-.17.15-.25.22h-.01c-11.29,9.75-26,15.64-42.08,15.64-14.59,0-28.04-4.85-38.84-13.03-.28-.21-.56-.42-.83-.63-.73-.57-1.45-1.16-2.15-1.77h-.01s-.07-.06-.1-.1t-.01,0c-9.92-8.52-17.22-20-20.51-33.08-.01-.01-.02-.02-.02-.03l-.38-1.6c-1.03-4.56-1.57-9.31-1.57-14.18,0-10.37,2.45-20.18,6.82-28.86ZM385.31,157.55v64.91s.04-.01.06-.01l-.06,21.91v48.17s.04-.01.06-.01l-.05,32.87h-.01v15.55c0,11.1-1.63,21.61-4.7,31.43,0,0-.01.04-.04.12-.01.05-.03.12-.06.2-.04.13-.09.29-.15.48-.02.06-.04.13-.06.2-.06.15-.11.31-.15.46-.03.08-.06.17-.09.26-.06.19-.13.38-.19.57-.34,1.01-.79,2.29-1.34,3.72-.19.5-.38.99-.58,1.48-.28.7-.58,1.43-.9,2.16-3.86,9.01-8.99,17.35-15.23,24.92,0,0-.02.03-.06.08-.04.05-.1.12-.18.22-.23.29-.63.77-1.15,1.39-1.82,2.15-5.11,5.89-8.08,8.48-6.73,6.38-14.34,12.07-22.68,16.96-.06.03-.12.07-.18.11-.2.12-.45.27-.73.44-.18.11-.38.22-.58.34-.2.11-.4.22-.59.33-9.94,5.62-20.87,10.16-32.56,13.5l.02.08s-10.2,3.29-21.42,4.6h-.03v-3.8l-.12-18.34s.09.01.14.03l.07-59.5v-8.99h.01l.04-37.07h-.01l.04-32.9h.01l.04-37.17h-.02l.05-32.87h.01l.04-37.6.03-27.71h.01s1.9-.02,1.9-.02v.02h50.77v-.02h4.18v.02h53.57l.94-.02v.02h.01ZM391.89,339.5l.02-154.71c24.37,28.71,39.07,65.94,39.07,106.61,0,75.77-51.03,139.57-120.48,158.66,47.57-16.88,81.39-60.02,81.39-110.56ZM182.02,150.76c12.01-7.33,25.03-13.16,38.81-17.22,12.52,9.99,28.39,15.95,45.64,15.95s33.4-6.07,45.98-16.22c14.12,4.07,27.45,10,39.73,17.49h-170.16ZM261.24,453.47c-12.65-.66-24.85-3.16-36.28-7.23-.15-.05-.3-.09-.45-.15-23.15-7.26-41.59-24.75-41.59-24.75v-.15c-22.54-20.43-36.72-48.84-36.72-80.25v-65.04h-.8v-42.04h.8v-76.31h36.72v-.02h42.04v.02h35.95l.09,76.31h.44v42.04h-.4l.2,177.57ZM212.39,446.51c-63.61-22.61-109.18-83.52-109.18-155.11,0-39.36,13.76-75.49,36.73-103.8v151.9c0,47.31,29.64,88.14,72.45,107.01ZM393.88,512.26c-1.21.7-2.43,1.39-3.65,2.07-1.25.69-2.5,1.37-3.75,2.04-1.27.68-2.55,1.35-3.84,2.01-4.05,2.08-8.17,4.05-12.34,5.91h-.01c-1.47.66-2.95,1.3-4.43,1.93-2.23.95-4.47,1.86-6.74,2.74-1.5.59-3.02,1.16-4.54,1.72-.82.31-1.64.6-2.46.89-1.64.59-3.3,1.16-4.96,1.71-1.66.55-3.32,1.09-5,1.61-2.51.78-5.04,1.52-7.58,2.22-.85.23-1.7.46-2.55.69-3.52.93-7.07,1.79-10.64,2.57-3.69.81-7.41,1.54-11.16,2.18-.96.17-1.92.33-2.88.48-1.93.31-3.86.59-5.8.86-1.02.14-2.04.28-3.06.4-2.05.25-4.1.48-6.15.69-3.09.31-6.19.56-9.31.76-5.38.35-10.8.52-16.27.52s-10.95-.17-16.35-.52c-3.12-.2-6.22-.45-9.31-.76-2.05-.21-4.1-.44-6.15-.69-1.02-.13-2.04-.26-3.06-.4-1.94-.27-3.87-.55-5.8-.86-.96-.16-1.92-.32-2.88-.48-3.75-.65-7.47-1.38-11.16-2.18-3.57-.78-7.12-1.64-10.64-2.57-.85-.23-1.7-.46-2.55-.69-2.54-.7-5.07-1.44-7.58-2.22-1.68-.52-3.34-1.06-5-1.61-1.66-.56-3.31-1.13-4.96-1.71-.82-.3-1.64-.59-2.46-.89-1.52-.56-3.04-1.13-4.54-1.72-2.26-.88-4.51-1.79-6.74-2.74-1.48-.63-2.96-1.27-4.43-1.93h-.01c-4.17-1.86-8.29-3.83-12.34-5.91-1.29-.66-2.57-1.33-3.84-2.01-1.25-.67-2.5-1.35-3.74-2.04-1.22-.68-2.44-1.37-3.65-2.07C63.35,468.23,12.03,385.77,12.03,291.29c0-117.71,79.67-216.79,187.98-246.13t-.01.02c-.8,1.71-1.53,3.45-2.2,5.23-3.01,8.01-4.65,16.69-4.65,25.75,0,20.12,8.12,38.36,21.24,51.61.04.04.09.09.13.13-16.7,5.3-32.29,13.06-46.34,22.86h-28.24v24.75c-28.05,30.48-45.16,71.09-45.16,115.68,0,66.32,37.87,123.87,93.29,152.38h.01c.67.34,1.34.68,2.02,1.02.27.14.54.27.81.4.06.03.12.06.18.09.89.44,1.78.87,2.68,1.29,1.92.89,3.86,1.76,5.81,2.58.98.42,1.96.82,2.95,1.22,2.04.82,4.1,1.6,6.18,2.34h0c2.25.8,4.52,1.56,6.81,2.28,3.45,1.07,6.94,2.03,10.47,2.89.63.15,1.25.3,1.88.44,1.25.29,2.5.56,3.76.83,2.53.52,5.07.99,7.63,1.4h.01c1.36.22,2.73.42,4.11.61,2.06.28,4.14.53,6.23.73,2.08.21,4.18.38,6.29.51,3.63.23,7.29.35,10.98.35s7.4-.12,11.06-.35c2.11-.13,4.21-.3,6.29-.51,2.09-.21,4.17-.45,6.23-.73,1.38-.19,2.75-.39,4.11-.61h.01c2.56-.41,5.11-.88,7.63-1.4,1.26-.27,2.51-.54,3.76-.83.63-.14,1.25-.29,1.88-.44,3.53-.86,7.03-1.83,10.47-2.89,2.29-.72,4.56-1.48,6.81-2.28h.01c2.08-.74,4.14-1.52,6.18-2.34.99-.4,1.97-.8,2.95-1.22,1.95-.82,3.89-1.69,5.81-2.58,1.23-.58,2.46-1.17,3.67-1.78.68-.34,1.35-.68,2.02-1.02h0c55.42-28.51,93.29-86.06,93.29-152.38,0-45.64-17.93-87.12-47.16-117.83v-22.6h-26.32c-14.23-9.92-30.04-17.76-46.97-23.06t.02-.02c.07-.08.15-.15.22-.23,12.95-13.22,20.93-31.32,20.93-51.29,0-10.61-2.25-20.69-6.31-29.79-.2-.45-.4-.9-.61-1.34,0-.01-.01-.02-.01-.02,33.39,8.96,64.07,24.55,90.55,45.27.58.45,1.16.9,1.73,1.36,1.39,1.1,2.77,2.22,4.13,3.35,1.39,1.16,2.77,2.33,4.14,3.52.77.66,1.53,1.34,2.29,2.01.69.62,1.38,1.23,2.06,1.85.38.34.75.69,1.12,1.03.56.51,1.12,1.03,1.67,1.55,49.75,46.52,80.86,112.79,80.86,186.34,0,94.48-51.32,176.94-127.54,220.97Z"/>
        <path class="cls-18" d="M385.31,157.55v8.55s0-.01-.01-.01c-.72-.68-1.46-1.36-2.2-2.01-.7-.64-1.4-1.27-2.11-1.89-.19-.16-.38-.32-.57-.48-1.64-1.43-3.3-2.81-4.99-4.16h8.93l.94-.02v.02h.01Z"/>
        <path class="cls-30" d="M158.01,157.55c-4.11,3.27-8.05,6.72-11.81,10.34v-10.34h11.81Z"/>
        <path class="cls-31" d="M330.86,76.07c0,19.38-8.56,36.75-22.09,48.56-.06-.01-.11-.02-.17-.04-3.81-.93-7.66-1.73-11.56-2.39-9.32-1.61-18.88-2.46-28.6-2.47-4.92-.01-9.79.18-14.59.55-8.42.64-16.65,1.85-24.65,3.59-1.58.34-3.14.7-4.7,1.09t-.01,0c-9.92-8.52-17.22-20-20.51-33.08-.01-.01-.02-.02-.02-.03l-.38-1.6c-1.03-4.56-1.57-9.31-1.57-14.18,0-10.37,2.45-20.18,6.82-28.86,3.56-.96,7.16-1.83,10.78-2.62,2.9-.63,5.81-1.22,8.74-1.74,12.9-2.34,26.11-3.68,39.55-3.92.71-.02,1.42-.03,2.14-.03h.01c.81-.02,1.61-.02,2.43-.02,5.9,0,11.74.2,17.52.6h.01c1.72.12,3.42.25,5.13.41,1.84.16,3.67.35,5.49.55,1.66.19,3.3.39,4.95.6h.01c5.61.74,11.15,1.67,16.62,2.78,3.88,6.7,6.59,14.16,7.85,22.1.15.95.29,1.91.39,2.88.27,2.39.41,4.81.41,7.27Z"/>
        <g>
          <path class="cls-37" d="M214.39,127.77c-17.14,5.31-33.03,13.12-47.25,22.99h-27.2v23.46c-28.5,30.4-45.57,71.11-45.57,115.82,0,5.15.22,10.25.67,15.29l-9.65-2.39-10.47-2.58h-.01l-21.19-5.24h0l-28.36-7.02-6.17-1.52c2.84-110.72,78.17-204.42,178.62-236.17-3.01,8.01-4.65,16.69-4.65,25.75,0,20.12,8.12,38.36,21.24,51.61Z"/>
          <path class="cls-4" d="M513.08,226.35l-78.04,25.8c-6.85-30.43-22.1-57.75-43.12-79.55v-21.84h-25.57c-14.41-10.07-30.4-17.99-47.48-23.31,12.95-13.22,20.93-31.32,20.93-51.29,0-10.61-2.25-20.69-6.31-29.79,29.08,7.33,56,19.8,79.83,36.45.37.26.74.52,1.1.78,3.05,2.16,6.05,4.38,9,6.68.58.45,1.16.9,1.73,1.36,1.39,1.1,2.77,2.22,4.13,3.35,1.39,1.16,2.77,2.33,4.14,3.52.77.66,1.53,1.34,2.29,2.01.69.62,1.38,1.23,2.06,1.85.38.34.75.69,1.12,1.03.56.51,1.12,1.03,1.67,1.55,2.6,2.44,5.14,4.97,7.63,7.52.02.02.03.03.05.05,1.53,1.56,3.05,3.14,4.54,4.74.11.12.22.24.33.35,27.75,30.12,49.38,67,59.97,108.74Z"/>
        </g>
        <path class="cls-22" d="M212.39,446.51c-63.61-22.61-109.18-83.52-109.18-155.11,0-39.36,13.76-75.49,36.73-103.8v151.9c0,47.31,29.64,88.14,72.45,107.01Z"/>
        <path class="cls-22" d="M352.18,150.76h-170.16c12.01-7.33,25.03-13.16,38.81-17.22,12.52,9.99,28.39,15.95,45.64,15.95s33.4-6.07,45.98-16.22c14.12,4.07,27.45,10,39.73,17.49Z"/>
        <path class="cls-22" d="M430.98,291.4c0,75.77-51.03,139.57-120.48,158.66,47.57-16.88,81.39-60.02,81.39-110.56l.02-154.71c24.37,28.71,39.07,65.94,39.07,106.61Z"/>
        <path class="cls-2" d="M188.07,443.57c-55.45-28.45-93.37-86-93.37-152.38,0-44.63,17.14-85.28,45.24-115.77v.09c-28.05,30.48-45.16,71.09-45.16,115.68,0,66.32,37.87,123.87,93.29,152.38Z"/>
        <path class="cls-2" d="M215.53,454.79c-2.29-.71-4.56-1.47-6.81-2.28,2.25.8,4.52,1.56,6.81,2.28Z"/>
        <path class="cls-2" d="M261.44,275.9h-.4l.2,177.57c-12.65-.66-24.85-3.16-36.28-7.23-.15-.05-.3-.09-.45-.15-23.15-7.26-41.59-24.75-41.59-24.75v-.15c-22.54-20.43-36.72-48.84-36.72-80.25v-65.04h-.8v-42.04h.8v-53.51c7.71-8.47,16.3-16.12,25.61-22.8h11.11v-.02h42.04v.02h35.95l.09,76.31h.44v42.04Z"/>
        <path class="cls-2" d="M385.31,292.53s.04-.01.06-.01l-.05,32.87h-.01v15.55c0,11.1-1.63,21.61-4.7,31.43,0,0-.01.04-.04.12-.01.06-.03.13-.06.2-.04.13-.09.29-.15.48-.02.06-.04.13-.06.2-.06.15-.11.31-.15.46-.03.08-.06.17-.09.26-.06.19-.13.38-.19.57-.34,1.01-.79,2.29-1.34,3.72-.19.5-.38.99-.58,1.48-.28.7-.58,1.43-.9,2.16-3.86,9.01-8.99,17.35-15.23,24.92,0,0-.02.03-.06.08-.04.05-.1.12-.18.22-.23.29-.63.77-1.15,1.39-1.82,2.15-5.11,5.89-8.08,8.48-6.73,6.38-14.34,12.07-22.68,16.96-.06.03-.12.07-.18.11-.2.12-.45.27-.73.44-.18.11-.38.22-.58.34-.2.11-.4.22-.59.33-9.94,5.62-20.87,10.16-32.56,13.5l.02.08s-10.2,3.29-21.42,4.6h-.03v-3.8l-.12-18.34s.09.01.14.03l.07-59.5v-8.99h.01l.04-37.07h-.01l.04-32.9h.01l.04-37.17h-.02l.05-32.87h.01l.04-37.6.03-27.71h.01s1.9-.02,1.9-.02v.02h50.77v-.02h4.18v.02h53.57l.94-.02v.02h.01v64.91s.04-.01.06-.01l-.06,21.91v48.17Z"/>
        <path class="cls-32" d="M171.81,157.55c-9.31,6.68-17.9,14.33-25.61,22.8v-22.8h25.61Z"/>
        <path class="cls-23" d="M261.24,453.47c-12.65-.66-24.85-3.16-36.28-7.23-.15-.05-.3-.09-.45-.15-15.61-5.62-29.76-14.16-41.59-24.9-22.54-20.43-36.72-48.84-36.72-80.25v-183.39h114.71l.09,76.31.04,42.04.2,177.57Z"/>
        <path class="cls-3" d="M385.31,157.55v183.39c0,11.1-1.63,21.61-4.7,31.43,0,0-.01.04-.04.12-.01.06-.03.13-.06.2-.04.13-.09.29-.15.48-.02.06-.04.13-.06.2-.06.15-.11.31-.15.46-.03.08-.06.17-.09.26-.06.19-.13.38-.19.57-.34,1.01-.79,2.29-1.34,3.72-.19.5-.38.99-.58,1.48-.28.7-.58,1.43-.9,2.16-3.86,9.01-8.99,17.35-15.23,24.92,0,0-.02.03-.06.08-.04.05-.1.12-.18.22-.23.29-.63.77-1.15,1.39-1.12,1.3-2.26,2.57-3.44,3.82-.01.02-.02.03-.05.05-1.48,1.57-3.01,3.11-4.59,4.61-6.73,6.38-14.34,12.07-22.68,16.96-.06.03-.12.07-.18.11-.2.12-.45.27-.73.44-.18.11-.38.22-.58.34-.2.11-.4.22-.59.33-9.94,5.62-20.87,10.16-32.56,13.5-6.89,1.99-14.04,3.55-21.4,4.68h-.03v-3.8l.02-18.31.07-59.5v-8.99s.05-37.07.05-37.07l.04-32.9.04-37.17.04-32.87.04-37.6.03-27.71h111.38Z"/>
        <path class="cls-5" d="M224.96,157.53v288.71c-.15-.05-.3-.09-.45-.15-23.15-7.26-41.59-24.75-41.59-24.75V157.53h42.04Z"/>
        <rect class="cls-21" x="145.4" y="233.86" width="116.04" height="42.04"/>
        <path class="cls-20" d="M204.45,221.03s9.47-8.4,9.88-19.51c1.25,2.7,5.26,12.04,5.98,19.31,1.14-1.14,5.51-6.84,6.76-9.44.21,1.56,1.45,13.19-.42,20.46,3.01,3.32,11.63,12.46,4.67,32.51-1.25,3.43-9.66,23.06-26.69,33.34-17.03-10.28-25.45-29.91-26.69-33.34-6.96-20.05,1.14-28.77,4.15-32.09-1.87-7.27-.62-18.9-.42-20.46,1.25,2.6,5.4,7.89,6.54,9.04.73-7.27,5.82-16.62,7.06-19.32.42,11.11,9.16,19.51,9.16,19.51Z"/>
        <path class="cls-19" d="M204.16,224.4s-9.1-10.49-9.53-15.74c-.86,1.82-4.28,6.53-4.28,16.27-2.46-1.18-5.24-3.96-6.74-5.89-.21,2.68-.43,9.85,1.18,14.24-1.39,1.07-10.6,7.81-6.21,26.23.54,1.93,6.96,22.69,25.9,35.64,5.24-3.64,17.88-12.85,25.9-33.93.96-3.53,5.78-20.77-6.1-28.26.75-2.46,1.93-7.39,1.07-14.56-1.07,1.82-4.92,5.67-7.17,6.53-.11-2.14,0-9.21-3.42-15.52-.54,2.04-2.68,6.31-5.35,8.89-2.46,2.89-4.61,5.13-5.25,6.1Z"/>
        <path class="cls-22" d="M229.85,239.2l-52.35,13.17h-.04c.14,2.16.49,4.55,1.11,7.17l.23.74,53.18-13.49.05-.02c-.24-2.59-.86-5.22-2.09-7.62l-.1.05Z"/>
        <path class="cls-22" d="M231.99,248.4l-52.67,13.06-.12.04c.57,1.64,1.54,4.14,2.99,7.13h.02s49.24-12.31,49.24-12.31l.07-.02c.4-2.28.72-5.05.62-7.94l-.15.05Z"/>
        <path class="cls-22" d="M231.14,257.93l-48.25,12.09c1.1,2.15,2.42,4.48,4.01,6.93l.24-.07,40.57-10.06.36-.06c.81-1.74,1.58-3.57,2.32-5.51.18-.67.5-1.83.82-3.33h-.07Z"/>
        <path class="cls-22" d="M308.26,218.71v2.15h-13.7v-2.15s1.52-.54,4.92-.54c0-1.16-.9-6.53-.54-11.01-1.43,0-11.55.09-11.55.09l-6.98-2.06-.89,1.25.71-3.49,12.8-.27s-.1-1.4-.02-4.45c-.55,0-2.49-.14-2.49-.14,0,0,0-.42.55-.42h2.08s.76-1.59,1.25-.07c.76.07,2.63,0,2.63,0,0,0,.28.21-.55.42s-2.01.07-2.01.07c0,0,.28,3.81.21,4.57.9.07,4.43-.28,4.43-.28,0,0-.49-8.86.69-11.63.83-1.94,1.59-4.85,3.05-.55.49,1.8,1.25,5.95.83,11.98,2.01.49,4.43.34,4.43.34v-4.23l-2.21-.14s-.42-.49.49-.49h2.01s.49-1.8,1.11,0c.62.07,2.15,0,2.15,0,0,0,1.11.42-.14.55-.76.07-1.66-.07-1.66-.07l-.14,4.57h12.67l.76,3.25s0,.9-.76-.69c-1.25.34-7.48,2.01-7.48,2.01l-11.15-.21s-.14,9.28-.55,11.08c1.3.07,5.06.54,5.06.54Z"/>
        <path class="cls-22" d="M350.5,170.25s0,.91-.76-.69c-1.25.35-7.48,2.01-7.48,2.01l-11.15-.21s-.14,9.28-.55,11.08c1.32.07,5.06.54,5.06.54v2.14h-13.69v-2.14s1.52-.54,4.92-.54c0-1.16-.9-6.54-.54-11.01-1.43,0-11.55.09-11.55.09l-6.98-2.06-.89,1.26.71-3.49,12.8-.27s-.09-1.41-.02-4.46c-.56,0-2.5-.13-2.5-.13,0,0,0-.42.56-.42h2.07s.76-1.59,1.25-.07c.76.07,2.63,0,2.63,0,0,0,.28.21-.55.41-.83.21-2.01.08-2.01.08,0,0,.28,3.81.21,4.57.9.07,4.43-.28,4.43-.28,0,0-.3-5.42.14-9.11v-.02h4.18v.02c.3,2.18.5,5.15.24,8.9,2.01.49,4.44.34,4.44.34v-4.22l-2.22-.13s-.41-.49.49-.49h2s.49-1.8,1.11,0c.63.07,2.15,0,2.15,0,0,0,1.11.42-.14.55-.76.07-1.66-.07-1.66-.07l-.14,4.57h12.68l.76,3.25Z"/>
        <path class="cls-22" d="M295.5,170.4s0,.9-.76-.7c-1.25.35-7.48,2.01-7.48,2.01l-11.14-.21s-.14,9.28-.56,11.08c1.32.07,5.07.54,5.07.54v2.14h-6.73l.04-27.71h0s1.9-.02,1.9-.02v.02c.29,2.17.45,5.38.2,9.04,2,.49,4.43.35,4.43.35v-4.23l-2.22-.13s-.41-.49.49-.49h2.01s.48-1.8,1.11,0c.62.07,2.14,0,2.14,0,0,0,1.11.42-.13.55-.76.07-1.66-.07-1.66-.07l-.14,4.57h12.67l.76,3.26Z"/>
        <path class="cls-22" d="M385.3,157.53v27.35h-6.69v-2.15s3.75-.46,5.06-.53c-.41-1.8-.55-11.08-.55-11.08l-11.15.21s-6.23-1.67-7.47-2.01c-.76,1.6-.76.69-.76.69l.76-3.25h12.67l-.14-4.57s-.9.14-1.66.07c-1.25-.14-.14-.55-.14-.55,0,0,1.53.07,2.15,0,.62-1.8,1.11,0,1.11,0h2c.82,0,.56.4.5.48h-.01s-.61.05-.61.05l-1.6.09v4.23s2.42.14,4.43-.35c-.03-.52-.06-1.03-.08-1.52-.01-.21-.02-.41-.02-.61-.07-2.65.09-4.78.32-6.51l1.88-.04Z"/>
        <path class="cls-22" d="M308.26,288.76v2.15h-13.7v-2.15s1.52-.54,4.92-.54c0-1.16-.9-6.53-.54-11.01-1.43,0-11.55.09-11.55.09l-6.98-2.06-.89,1.25.71-3.49,12.8-.27s-.1-1.4-.02-4.45c-.55,0-2.49-.14-2.49-.14,0,0,0-.42.55-.42h2.08s.76-1.59,1.25-.07c.76.07,2.63,0,2.63,0,0,0,.28.21-.55.42s-2.01.07-2.01.07c0,0,.28,3.81.21,4.57.9.07,4.43-.28,4.43-.28,0,0-.49-8.86.69-11.63.83-1.94,1.59-4.85,3.05-.55.49,1.8,1.25,5.95.83,11.98,2.01.49,4.43.34,4.43.34v-4.23l-2.21-.14s-.42-.49.49-.49h2.01s.49-1.8,1.11,0c.62.07,2.15,0,2.15,0,0,0,1.11.42-.14.55-.76.07-1.66-.07-1.66-.07l-.14,4.57h12.67l.76,3.25s0,.9-.76-.69c-1.25.34-7.48,2.01-7.48,2.01l-11.15-.21s-.14,9.28-.55,11.08c1.3.07,5.06.54,5.06.54Z"/>
        <path class="cls-22" d="M365.75,218.71v2.15h-13.7v-2.15s1.52-.54,4.92-.54c0-1.16-.9-6.53-.54-11.01-1.43,0-11.55.09-11.55.09l-6.98-2.06-.89,1.25.71-3.49,12.8-.27s-.1-1.4-.02-4.45c-.55,0-2.49-.14-2.49-.14,0,0,0-.42.55-.42h2.08s.76-1.59,1.25-.07c.76.07,2.63,0,2.63,0,0,0,.28.21-.55.42s-2.01.07-2.01.07c0,0,.28,3.81.21,4.57.9.07,4.43-.28,4.43-.28,0,0-.49-8.86.69-11.63.83-1.94,1.59-4.85,3.05-.55.49,1.8,1.25,5.95.83,11.98,2.01.49,4.43.34,4.43.34v-4.23l-2.21-.14s-.42-.49.49-.49h2.01s.49-1.8,1.11,0c.62.07,2.15,0,2.15,0,0,0,1.11.42-.14.55-.76.07-1.66-.07-1.66-.07l-.14,4.57h12.67l.76,3.25s0,.9-.76-.69c-1.25.34-7.48,2.01-7.48,2.01l-11.15-.21s-.14,9.28-.55,11.08c1.31.07,5.06.54,5.06.54Z"/>
        <path class="cls-22" d="M365.75,288.62v2.15h-13.7v-2.15s1.52-.54,4.92-.54c0-1.16-.9-6.53-.54-11.01-1.43,0-11.55.09-11.55.09l-6.98-2.06-.89,1.25.71-3.49,12.8-.27s-.1-1.4-.02-4.45c-.55,0-2.49-.14-2.49-.14,0,0,0-.42.55-.42h2.08s.76-1.59,1.25-.07c.76.07,2.63,0,2.63,0,0,0,.28.21-.55.42s-2.01.07-2.01.07c0,0,.28,3.81.21,4.57.9.07,4.43-.28,4.43-.28,0,0-.49-8.86.69-11.63.83-1.94,1.59-4.85,3.05-.55.49,1.8,1.25,5.95.83,11.98,2.01.49,4.43.34,4.43.34v-4.23l-2.21-.14s-.42-.49.49-.49h2.01s.49-1.8,1.11,0c.62.07,2.15,0,2.15,0,0,0,1.11.42-.14.55-.76.07-1.66-.07-1.66-.07l-.14,4.57h12.67l.76,3.25s0,.9-.76-.69c-1.25.34-7.48,2.01-7.48,2.01l-11.15-.21s-.14,9.28-.55,11.08c1.31.07,5.06.54,5.06.54Z"/>
        <path class="cls-22" d="M335.75,253.59v2.15h-13.7v-2.15s1.52-.54,4.92-.54c0-1.16-.9-6.53-.54-11.01-1.43,0-11.55.09-11.55.09l-6.98-2.06-.89,1.25.71-3.49,12.8-.27s-.1-1.4-.02-4.45c-.55,0-2.49-.14-2.49-.14,0,0,0-.42.55-.42h2.08s.76-1.59,1.25-.07c.76.07,2.63,0,2.63,0,0,0,.28.21-.55.42s-2.01.07-2.01.07c0,0,.28,3.81.21,4.57.9.07,4.43-.28,4.43-.28,0,0-.49-8.86.69-11.63.83-1.94,1.59-4.85,3.05-.55.49,1.8,1.25,5.95.83,11.98,2.01.49,4.43.34,4.43.34v-4.23l-2.21-.14s-.42-.49.49-.49h2.01s.49-1.8,1.11,0c.62.07,2.15,0,2.15,0,0,0,1.11.42-.14.55-.76.07-1.66-.07-1.66-.07l-.14,4.57h12.67l.76,3.25s0,.9-.76-.69c-1.25.34-7.48,2.01-7.48,2.01l-11.15-.21s-.14,9.28-.55,11.08c1.3.07,5.06.54,5.06.54Z"/>
        <path class="cls-22" d="M295.36,240.86s0,.9-.76-.69c-1.24.34-7.48,2.01-7.48,2.01l-11.14-.21s-.14,9.28-.55,11.08c1.31.07,5.06.53,5.06.53v2.15h-6.69l.05-32.87h.01c.39.03.66.62,1.21,2.22.48,1.8,1.24,5.96.83,11.98,2.01.49,4.43.35,4.43.35v-4.23l-2.21-.14s-.42-.48.48-.48h2.01s.49-1.8,1.11,0c.62.07,2.15,0,2.15,0,0,0,1.11.41-.14.55-.76.07-1.66-.07-1.66-.07l-.14,4.57h12.67l.76,3.25Z"/>
        <path class="cls-22" d="M385.37,222.45l-.06,21.91-.03,10.96h-6.72v-2.15s3.75-.47,5.07-.54c-.42-1.8-.56-11.08-.56-11.08l-11.14.21s-6.23-1.66-7.48-2.01c-.76,1.6-.76.7-.76.7l.76-3.26h12.67l-.14-4.57s-.9.15-1.66.08c-1.24-.14-.13-.56-.13-.56,0,0,1.52.07,2.14,0,.63-1.8,1.11,0,1.11,0h2.01c.9,0,.49.49.49.49l-2.22.14v4.22s2.43.14,4.43-.34c-.41-6.03.35-10.18.83-11.98.52-1.53.95-2.15,1.33-2.21.02-.01.04-.01.06-.01Z"/>
        <path class="cls-22" d="M295.36,310.94s0,.9-.76-.7c-1.24.35-7.48,2.01-7.48,2.01l-11.14-.21s-.14,9.28-.55,11.08c1.31.07,5.06.54,5.06.54v2.14h-6.76l.04-32.9h.01c.39.03.75.66,1.29,2.26.49,1.8,1.25,5.95.83,11.97,2.01.49,4.44.35,4.44.35v-4.23l-2.22-.13s-.42-.49.48-.49h2.01s.49-1.8,1.11,0c.62.07,2.15,0,2.15,0,0,0,1.11.42-.14.55-.76.07-1.66-.07-1.66-.07l-.14,4.57h12.67l.76,3.26Z"/>
        <path class="cls-22" d="M295.36,380.87s0,.9-.76-.7c-1.24.35-7.48,2.01-7.48,2.01l-11.14-.21s-.14,9.28-.55,11.08c1.31.07,5.06.54,5.06.54v2.15l-6.77-.22-.03-23.66v-8.99h.01c.39.03.83.64,1.37,2.22.48,1.8,1.24,5.95.83,11.98,2.01.48,4.43.34,4.43.34v-4.22l-2.21-.14s-.42-.49.48-.49h2.01s.49-1.8,1.11,0c.62.07,2.15,0,2.15,0,0,0,1.11.42-.14.55-.76.08-1.66-.07-1.66-.07l-.14,4.57h12.67l.76,3.26Z"/>
        <path class="cls-22" d="M295.05,448.87s-10.2,3.29-21.42,4.6l-.03-3.8-.12-18.34s.09.01.14.03c.36.14.76.77,1.24,2.19.49,1.8,1.25,5.96.84,11.98,2,.49,4.43.35,4.43.35v-4.23l-2.22-.14s-.41-.48.49-.48h2.01s.48-1.8,1.11,0c.62.07,2.14,0,2.14,0,0,0,1.11.41-.13.55-.76.07-1.67-.07-1.67-.07l-.13,4.57h12.67l.63,2.71.02.08Z"/>
        <path class="cls-22" d="M385.37,292.52l-.05,32.87h-6.76v-2.15s3.75-.46,5.07-.53c-.42-1.81-.56-11.08-.56-11.08l-11.14.2s-6.23-1.66-7.48-2c-.76,1.59-.76.69-.76.69l.76-3.25h12.67l-.14-4.57s-.9.14-1.66.07c-1.24-.14-.13-.55-.13-.55,0,0,1.52.07,2.14,0,.63-1.8,1.11,0,1.11,0h2.01c.9,0,.49.48.49.48l-2.22.14v4.22s2.43.14,4.43-.34c-.41-6.03.35-10.18.83-11.98.52-1.53.95-2.14,1.33-2.21.02-.01.04-.01.06-.01Z"/>
        <path class="cls-22" d="M380.61,372.37s-.01.04-.04.12c-.01.06-.03.13-.06.2-.04.13-.09.29-.15.48-.02.06-.04.13-.06.2-.06.15-.11.31-.15.46-.03.08-.06.17-.09.26-.06.19-.13.38-.19.57-.34,1.01-.79,2.29-1.34,3.72-.19.5-.38.99-.58,1.48-.28.7-.58,1.43-.9,2.16l-3.47.03s-6.23-1.66-7.48-2.01c-.76,1.6-.76.7-.76.7l.76-3.25h12.67l-.13-4.57s-.9.13-1.66.07c-1.25-.14-.14-.56-.14-.56,0,0,1.52.07,2.15,0,.62-1.8,1.11,0,1.11,0,0,0,.14-.06.51-.06Z"/>
        <path class="cls-22" d="M308.26,358.39v2.15h-13.7v-2.15s1.52-.54,4.92-.54c0-1.16-.9-6.53-.54-11.01-1.43,0-11.55.09-11.55.09l-6.98-2.06-.89,1.25.71-3.49,12.8-.27s-.1-1.4-.02-4.45c-.55,0-2.49-.14-2.49-.14,0,0,0-.42.55-.42h2.08s.76-1.59,1.25-.07c.76.07,2.63,0,2.63,0,0,0,.28.21-.55.42s-2.01.07-2.01.07c0,0,.28,3.81.21,4.57.9.07,4.43-.28,4.43-.28,0,0-.49-8.86.69-11.63.83-1.94,1.59-4.85,3.05-.55.49,1.8,1.25,5.95.83,11.98,2.01.49,4.43.34,4.43.34v-4.23l-2.21-.14s-.42-.49.49-.49h2.01s.49-1.8,1.11,0c.62.07,2.15,0,2.15,0,0,0,1.11.42-.14.55-.76.07-1.66-.07-1.66-.07l-.14,4.57h12.67l.76,3.25s0,.9-.76-.69c-1.25.34-7.48,2.01-7.48,2.01l-11.15-.21s-.14,9.28-.55,11.08c1.3.07,5.06.54,5.06.54Z"/>
        <path class="cls-22" d="M308.26,428.58v2.15h-13.7v-2.15s1.52-.54,4.92-.54c0-1.16-.9-6.53-.54-11.01-1.43,0-11.55.09-11.55.09l-6.98-2.06-.89,1.25.71-3.49,12.8-.27s-.1-1.4-.02-4.45c-.55,0-2.49-.14-2.49-.14,0,0,0-.42.55-.42h2.08s.76-1.59,1.25-.07c.76.07,2.63,0,2.63,0,0,0,.28.21-.55.42s-2.01.07-2.01.07c0,0,.28,3.81.21,4.57.9.07,4.43-.28,4.43-.28,0,0-.49-8.86.69-11.63.83-1.94,1.59-4.85,3.05-.55.49,1.8,1.25,5.95.83,11.98,2.01.49,4.43.34,4.43.34v-4.23l-2.21-.14s-.42-.49.49-.49h2.01s.49-1.8,1.11,0c.62.07,2.15,0,2.15,0,0,0,1.11.42-.14.55-.76.07-1.66-.07-1.66-.07l-.14,4.57h12.67l.76,3.25s0,.9-.76-.69c-1.25.34-7.48,2.01-7.48,2.01l-11.15-.21s-.14,9.28-.55,11.08c1.3.07,5.06.54,5.06.54Z"/>
        <path class="cls-22" d="M329.92,433.91s-.1.06-.25.16c-.06.03-.12.07-.18.11-.2.12-.45.27-.73.44-.18.11-.38.22-.58.34-.2.11-.4.22-.59.33-.5.27-.95.48-1.23.56-.61.17.24-1.16.42-1.57.83-1.94,1.68-4.67,3.14-.37Z"/>
        <path class="cls-22" d="M361.82,406.94s-.02.03-.06.08c-.04.05-.1.12-.18.22-.23.29-.63.77-1.15,1.39-1.82,2.15-5.11,5.89-8.08,8.48-.14.12-.28.24-.42.36-3.25.03-6.45.05-6.45.05l-6.98-2.06-.9,1.26.72-3.49,12.8-.27s-.1-1.41-.03-4.46c-.55,0-2.49-.14-2.49-.14,0,0,0-.41.55-.41h2.08s.76-1.59,1.25-.07c.76.07,2.63,0,2.63,0,0,0,.28.21-.56.41-.83.21-2,.07-2,.07,0,0,.28,3.81.21,4.57.84.07,3.78-.37,4.18-.43.03-.01.05-.01.05-.01v-.04c-.02-.64-.24-8.76.89-11.43.83-1.94,1.59-4.84,3.04-.55.32,1.19.76,3.39.9,6.47Z"/>
        <path class="cls-22" d="M365.75,358.26v2.15h-13.7v-2.15s1.52-.54,4.92-.54c0-1.16-.9-6.53-.54-11.01-1.43,0-11.55.09-11.55.09l-6.98-2.06-.89,1.25.71-3.49,12.8-.27s-.1-1.4-.02-4.45c-.55,0-2.49-.14-2.49-.14,0,0,0-.42.55-.42h2.08s.76-1.59,1.25-.07c.76.07,2.63,0,2.63,0,0,0,.28.21-.55.42s-2.01.07-2.01.07c0,0,.28,3.81.21,4.57.9.07,4.43-.28,4.43-.28,0,0-.49-8.86.69-11.63.83-1.94,1.59-4.85,3.05-.55.49,1.8,1.25,5.95.83,11.98,2.01.49,4.43.34,4.43.34v-4.23l-2.21-.14s-.42-.49.49-.49h2.01s.49-1.8,1.11,0c.62.07,2.15,0,2.15,0,0,0,1.11.42-.14.55-.76.07-1.66-.07-1.66-.07l-.14,4.57h12.67l.76,3.25s0,.9-.76-.69c-1.25.34-7.48,2.01-7.48,2.01l-11.15-.21s-.14,9.28-.55,11.08c1.31.07,5.06.54,5.06.54Z"/>
        <path class="cls-22" d="M335.75,323.23v2.15h-13.7v-2.15s1.52-.54,4.92-.54c0-1.16-.9-6.53-.54-11.01-1.43,0-11.55.09-11.55.09l-6.98-2.06-.89,1.25.71-3.49,12.8-.27s-.1-1.4-.02-4.45c-.55,0-2.49-.14-2.49-.14,0,0,0-.42.55-.42h2.08s.76-1.59,1.25-.07c.76.07,2.63,0,2.63,0,0,0,.28.21-.55.42s-2.01.07-2.01.07c0,0,.28,3.81.21,4.57.9.07,4.43-.28,4.43-.28,0,0-.49-8.86.69-11.63.83-1.94,1.59-4.85,3.05-.55.49,1.8,1.25,5.95.83,11.98,2.01.49,4.43.34,4.43.34v-4.23l-2.21-.14s-.42-.49.49-.49h2.01s.49-1.8,1.11,0c.62.07,2.15,0,2.15,0,0,0,1.11.42-.14.55-.76.07-1.66-.07-1.66-.07l-.14,4.57h12.67l.76,3.25s0,.9-.76-.69c-1.25.34-7.48,2.01-7.48,2.01l-11.15-.21s-.14,9.28-.55,11.08c1.3.07,5.06.54,5.06.54Z"/>
        <path class="cls-22" d="M335.47,393.28v2.15h-13.69v-2.15s1.52-.54,4.92-.54c0-1.16-.9-6.53-.54-11.01-1.43,0-11.55.09-11.55.09l-6.98-2.06-.89,1.25.71-3.49,12.8-.27s-.1-1.4-.02-4.45c-.55,0-2.49-.14-2.49-.14,0,0,0-.42.55-.42h2.08s.76-1.59,1.25-.07c.76.07,2.63,0,2.63,0,0,0,.28.21-.55.42s-2.01.07-2.01.07c0,0,.28,3.81.21,4.57.9.07,4.43-.28,4.43-.28,0,0-.49-8.86.69-11.63.83-1.94,1.59-4.85,3.05-.55.49,1.8,1.25,5.95.83,11.98,2.01.49,4.43.34,4.43.34v-4.23l-2.21-.14s-.42-.49.49-.49h2.01s.49-1.8,1.11,0c.62.07,2.15,0,2.15,0,0,0,1.11.42-.14.55-.76.07-1.66-.07-1.66-.07l-.14,4.57h12.67l.76,3.25s0,.9-.76-.69c-1.25.34-7.48,2.01-7.48,2.01l-11.15-.21s-.14,9.28-.55,11.08c1.3.08,5.05.54,5.05.54Z"/>
        <path class="cls-2" d="M330.86,76.07c0,19.38-8.56,36.75-22.09,48.56-.09.07-.17.15-.25.22h-.01c-11.29,9.75-26,15.64-42.08,15.64-14.59,0-28.04-4.85-38.84-13.03-.28-.21-.56-.42-.83-.63-.73-.57-1.45-1.16-2.15-1.77h-.01s-.07-.06-.1-.1t-.01,0c-9.92-8.52-17.22-20-20.51-33.08-.01-.01-.02-.02-.02-.03l-.38-1.6c-1.03-4.56-1.57-9.31-1.57-14.18,0-10.37,2.45-20.18,6.82-28.86.83-1.66,1.73-3.28,2.71-4.86t.01-.02c.49-.8,1-1.59,1.53-2.36l-.13-.1c2.16-3.17,4.59-6.14,7.26-8.87.08-.02.16-.03.24-.04h.01c.57-.1,1.14-.2,1.72-.3,2.27-.39,4.55-.75,6.84-1.07.9-.13,1.8-.26,2.7-.37,3.62-.48,7.25-.89,10.91-1.21.7-.07,1.41-.13,2.11-.18.36-.04.73-.06,1.1-.09.89-.07,1.79-.14,2.69-.19.11-.02.23-.02.35-.03.94-.06,1.89-.12,2.84-.17,1.07-.06,2.13-.12,3.2-.16h.03c1.17-.05,2.34-.1,3.51-.13.25-.01.5-.02.76-.02.82-.02,1.65-.04,2.48-.05.5-.02,1.01-.02,1.52-.02,1.08-.02,2.16-.03,3.25-.03,2.08,0,4.16.02,6.24.08.63.01,1.27.02,1.9.05,1,.02,2,.06,3,.11.32.01.64.02.96.04,1.19.05,2.37.11,3.56.18.74.04,1.48.09,2.21.14.1,0,.2.01.29.02.83.05,1.65.11,2.47.18.59.04,1.17.09,1.76.14.59.05,1.17.1,1.76.16.11,0,.22.01.33.03.51.04,1.01.09,1.52.14.14.01.29.03.44.05.38.03.77.07,1.16.12,1.6.16,3.2.34,4.79.54.59.06,1.17.14,1.74.21.35.05.69.1,1.04.15,1.93.25,3.85.53,5.76.83.78.12,1.56.25,2.33.38.9.14,1.79.29,2.68.46,3.34,3.4,6.3,7.17,8.82,11.23,0,.01.01.02.01.02.33.54.66,1.08.97,1.62,3.88,6.7,6.59,14.16,7.85,22.1.15.95.29,1.91.39,2.88.27,2.39.41,4.81.41,7.27Z"/>
        <path class="cls-2" d="M312.41,30.95c-.89-.17-1.78-.32-2.68-.46-.77-.14-1.55-.26-2.33-.38-1.91-.3-3.83-.58-5.76-.83-.35-.05-.69-.1-1.04-.15-.57-.07-1.15-.15-1.74-.21-1.59-.2-3.19-.38-4.79-.54-.39-.05-.78-.09-1.16-.12-.15-.02-.3-.04-.44-.05-.51-.05-1.01-.1-1.52-.14-.11-.02-.22-.03-.33-.03-.59-.06-1.17-.11-1.76-.16-.59-.05-1.17-.1-1.76-.14-.82-.07-1.64-.13-2.47-.18-.09-.01-.19-.02-.29-.02-.73-.05-1.47-.1-2.21-.14-1.19-.07-2.37-.13-3.56-.18-.32-.02-.64-.04-.96-.04-1-.05-2-.09-3-.11-.63-.03-1.27-.04-1.9-.05-2.08-.06-4.16-.08-6.24-.08-1.09,0-2.17,0-3.25.03-.51,0-1.02,0-1.52.02-.83.01-1.66.03-2.48.05-.26,0-.51.01-.76.02-1.17.03-2.34.08-3.51.13h-.03c-1.07.04-2.13.1-3.2.16-.95.05-1.9.11-2.84.17-.12.01-.24.01-.35.03-.9.05-1.8.12-2.69.19-.37.03-.74.05-1.1.09-.7.05-1.41.11-2.11.18-3.66.32-7.29.73-10.91,1.21-.9.11-1.8.24-2.7.37-2.29.32-4.57.68-6.84,1.07-.57.09-1.14.19-1.71.29h0s-.01.01-.01.01c-.08.01-.16.02-.24.04,8.04-8.21,18.24-14.29,29.7-17.29v.05s0,.01,0,.04c5.28-1.41,10.82-2.15,16.53-2.15,2.62,0,5.2.16,7.74.46-.03-.01-.04-.01-.04-.01l-.1-.03c2.37.28,4.7.7,6.99,1.24.79.18,1.58.38,2.36.6.62.17,1.24.35,1.85.54,1.98.6,3.92,1.3,5.8,2.09.3.13.59.25.88.38.04.01.08.03.12.05.54.23,1.07.47,1.59.72.59.28,1.17.56,1.75.85.51.26,1.01.52,1.51.79,5.76,3.07,10.99,7,15.53,11.62Z"/>
        <path class="cls-8" d="M330.86,76.07c0,19.38-8.56,36.75-22.09,48.56-.09.07-.17.15-.25.22h-.01c-11.29,9.75-26,15.64-42.08,15.64-14.59,0-28.04-4.85-38.84-13.03-.28-.21-.56-.42-.83-.63-.73-.57-1.45-1.16-2.15-1.77h-.01s-.07-.06-.1-.1t-.01,0c-9.92-8.52-17.22-20-20.51-33.08-.01-.01-.02-.02-.02-.03l-.38-1.6c-1.03-4.56-1.57-9.31-1.57-14.18,0-10.37,2.45-20.18,6.82-28.86.83-1.66,1.73-3.28,2.71-4.86t.01-.02c.49-.8,1-1.59,1.53-2.36,2.18-3.23,4.65-6.24,7.37-9.01h.02c7.97-8.14,18.08-14.16,29.43-17.16,5.28-1.41,10.82-2.15,16.53-2.15,2.62,0,5.2.16,7.74.46.02,0,.06.01.1.02,2.29.27,4.54.67,6.75,1.18.79.18,1.58.38,2.36.6.62.17,1.24.35,1.85.54,1.98.6,3.92,1.3,5.8,2.09.3.13.59.25.88.38.04.01.08.03.12.05.54.23,1.07.47,1.59.72.59.28,1.17.56,1.75.85.51.26,1.01.52,1.51.79,5.76,3.07,10.99,7,15.53,11.62,3.34,3.4,6.3,7.17,8.82,11.23,0,.01.01.02.01.02.33.54.66,1.08.97,1.62,3.88,6.7,6.59,14.16,7.85,22.1.15.95.29,1.91.39,2.88.27,2.39.41,4.81.41,7.27Z"/>
        <g>
          <path class="cls-12" d="M330.37,68.92l-.04-.06c-2.48-4.33-9.16-5.43-11.15-5.67-.23-.03-.38-.04-.4-.04h-.13s.12-1.75.12-1.75h.12l.2.02c1.19.11,7.33.83,11.05,4.4.17.92.32,1.93.43,2.96v.14s-.21,0-.21,0Z"/>
          <path class="cls-33" d="M318.89,61.53s.1.01.2.02c1.21.11,7.3.84,10.97,4.37.15.95.29,1.91.39,2.88h-.01c-2.55-4.45-9.47-5.52-11.24-5.73-.25-.03-.4-.04-.41-.04l.1-1.5M318.89,61.28h-.23l-.02.23-.1,1.5-.02.27h.27s.16.01.38.04c1.97.23,8.6,1.33,11.05,5.61l.07.13h.42l-.02-.28c-.11-1.04-.26-2.05-.39-2.89v-.08s-.07-.06-.07-.06c-3.75-3.6-9.92-4.33-11.12-4.44h-.1c-.06-.02-.1-.02-.13-.02h0Z"/>
        </g>
        <g>
          <path class="cls-9" d="M214.32,103.72c-.11-.02-.21-.05-.32-.1-2.86-1.01-8.26-7.9-10.14-11.69l-.41-1.66-.17-.71.4.61c5.46,8.46,8.92,11,10.16,11.7.4.23.66.33.75.36l.11.03-.25,1.48-.13-.03Z"/>
          <path class="cls-33" d="M203.58,90.25c5.33,8.26,8.75,10.92,10.2,11.74.44.26.7.35.78.37-.04.25-.11.64-.21,1.24-.1-.02-.2-.05-.3-.09-2.86-1.01-8.25-7.95-10.07-11.63-.01-.01-.02-.02-.02-.03l-.38-1.6M203,88.89l.34,1.42.37,1.57v.07l.06.07c1.9,3.82,7.31,10.71,10.2,11.72.11.04.22.08.33.1l.25.05.04-.25.13-.77c.03-.2.06-.35.08-.48l.04-.23-.22-.06s-.24-.06-.71-.34c-1.23-.7-4.67-3.22-10.12-11.66l-.79-1.22h0Z"/>
        </g>
        <g>
          <path class="cls-29" d="M214.56,102.49l-.14-.06.02-.09c.05-.29.07-.37.1-.42l.23-.34v.41c0,.05-.05.4-.05.4l-.02.11h-.14Z"/>
          <path class="cls-33" d="M214.64,101.99s-.05.38-.05.38c0,0-.01,0-.03-.01.04-.23.06-.34.08-.37M214.89,101.16l-.46.69c-.05.07-.06.15-.12.47l-.03.18.17.08.05.03h.09s.22.01.22.01l.03-.21s.05-.36.05-.42v-.82h0Z"/>
        </g>
        <g>
          <polygon class="cls-10" points="248.12 29.07 248.82 28.02 278.68 43.12 278.12 44.24 248.12 29.07"/>
          <path class="cls-33" d="M248.86,28.18l29.65,15-.45.9-29.76-15.05.56-.84M248.77,27.86l-.12.19-.56.84-.16.23.25.13,29.76,15.05.22.11.11-.23.45-.9.11-.22-.22-.11-29.65-15-.2-.1h0Z"/>
        </g>
        <g>
          <polygon class="cls-25" points="250.89 94.23 278.57 74.95 279.28 75.98 251.6 95.26 250.89 94.23"/>
          <path class="cls-33" d="M278.54,75.13l.57.82-27.47,19.13-.57-.82,27.47-19.13M278.6,74.78l-.21.14-27.47,19.13-.2.14.14.2.57.82.14.21.21-.14,27.47-19.13.2-.14-.14-.2-.57-.82-.14-.21h0Z"/>
        </g>
        <g>
          <path class="cls-26" d="M301.79,38.9c-.03-.39-.8-9.71-2.85-16.19l-.04-.12,1.19-.38.04.12c2.1,6.62,2.87,16.07,2.91,16.47v.12s-.11.01-.11.01l-1.12.09v-.13Z"/>
          <path class="cls-33" d="M300.01,22.37c2.14,6.74,2.89,16.35,2.9,16.44l-1,.08c0-.1-.76-9.59-2.86-16.22l.95-.3M300.17,22.06l-.24.08-.95.3-.24.08.08.24c2.09,6.61,2.84,16.07,2.85,16.16l.02.25.25-.02,1-.08.25-.02-.02-.25c0-.1-.76-9.71-2.91-16.5l-.08-.24h0Z"/>
        </g>
        <g>
          <path class="cls-24" d="M306.01,114.75l.02-.12c.02-.15,2.3-15.54-1.12-28.17l-.03-.12,1.21-.33.03.12c3.46,12.79,1.17,28.52,1.15,28.68l-.02.12-1.24-.19Z"/>
          <path class="cls-33" d="M305.99,86.17c3.47,12.82,1.17,28.47,1.15,28.63l-.99-.15c.02-.15,2.29-15.6-1.12-28.22l.97-.26M306.17,85.86l-.24.07-.97.26-.24.07.07.24c3.41,12.59,1.14,27.96,1.12,28.11l-.04.25.25.04.99.15.25.04.04-.25c.02-.16,2.32-15.9-1.15-28.73l-.07-.24h0Z"/>
        </g>
        <g>
          <path class="cls-11" d="M282.77,131.94c-.86-.12-21.18-3.08-29.79-9.81l-.1-.08.77-.99.1.08c8.37,6.55,28.98,9.53,29.19,9.56l.12.02-.18,1.24-.12-.02Z"/>
          <path class="cls-33" d="M253.68,121.24c8.39,6.57,29.04,9.55,29.25,9.58l-.14.99c-.86-.12-21.12-3.06-29.73-9.79l.62-.79M253.63,120.89l-.15.2-.62.79-.15.2.2.15c8.65,6.76,28.99,9.71,29.85,9.84l.25.04.04-.25.14-.99.04-.25-.25-.04c-.21-.03-20.78-3-29.13-9.53l-.2-.15h0Z"/>
        </g>
        <g>
          <path class="cls-27" d="M224.03,83.99c-2.71-10.1-1.41-37.82-1.36-38.99v-.12s1.26.06,1.26.06v.12c-.02.29-1.34,28.73,1.31,38.61l.03.12-1.21.32-.03-.12Z"/>
          <path class="cls-33" d="M222.8,45l1,.05c-.01.29-1.35,28.72,1.32,38.65l-.97.26c-2.71-10.08-1.41-37.78-1.35-38.96M222.56,44.74v.25c-.07,1.18-1.38,28.9,1.35,39.03l.06.24.24-.07.97-.26.24-.06-.06-.24c-2.65-9.85-1.32-38.29-1.31-38.57v-.25s-.24-.01-.24-.01l-1-.05h-.25Z"/>
        </g>
        <g>
          <path class="cls-28" d="M227.51,127.56l.08-.1-.14.05c-.26-.19-.52-.39-.77-.58l-.13-.1.13-.1c1.01-.75,1.68-1.56,2.56-2.78l.09-.13.1.12c.14.16.27.29.36.38h.48s.22.02.22.02l-.13.18c-1.02,1.44-1.83,2.34-2.71,3.04l-.08.06-.08-.06Z"/>
          <path class="cls-33" d="M229.35,124.02c.14.16.27.29.37.39l.56.04c-.88,1.24-1.72,2.25-2.69,3.01-.28-.21-.56-.42-.83-.63,1.01-.75,1.69-1.56,2.59-2.81M229.33,123.62l-.18.26c-.88,1.22-1.54,2.01-2.54,2.76l-.26.2.26.2c.27.21.55.42.83.63l.15.11.15-.12c.88-.69,1.73-1.64,2.74-3.06l.26-.36-.44-.03-.47-.03c-.09-.09-.19-.19-.29-.31l-.21-.24h0Z"/>
        </g>
        <path class="cls-15" d="M306.71,25.89c-2.28-1.53-4.42-2.28-6.51-2.87-.2-.06-.4-.12-.6-.17-.13-.08-.24-.15-.37-.23h-.01c-11.95-7.24-23.53-10.15-24.95-10.49-.04-.01-.08-.02-.1-.02-.03-.01-.04-.01-.04-.01l-.1-.03c2.37.28,4.7.7,6.99,1.24.79.18,1.58.38,2.36.6.62.17,1.24.35,1.85.54,1.98.6,3.92,1.3,5.8,2.09.3.13.59.25.88.38.04.01.08.03.12.05.54.23,1.07.47,1.59.72.59.28,1.17.56,1.75.85.51.26,1.01.52,1.51.79,3.49,1.89,6.78,4.08,9.83,6.56Z"/>
        <path class="cls-6" d="M301.68,38.31s-9.36-.62-23.71,4.58c-.78.38-.83-.21-.62,3.95.21,4.16.83,27.87.83,27.87,0,0-.08,1.49,1.66,2.29,2.11.97,19.97,9.57,25.17,9.78.83.21,2.08,0,3.33-1.87s8.32-12.27,10.19-19.34c.62-2.08,1.09-3,.21-4.99-1.87-3.54-9.36-15.39-13.73-20.17-1.27-1.14-2.1-2.01-3.33-2.08Z"/>
        <path class="cls-16" d="M318.47,113.8c-.16-.07-1.18,3.96-11.79.22-3.33,3.33-14.98,13.73-25.58,16.85,1.04,1.45,1.56,4.78-.09,7.89l-.05.02c15.32-3.57,28.55-12.62,37.5-24.97Z"/>
        <path class="cls-14" d="M249.91,13.71v.05s0,.01,0,.04c-.07.65-.89,8.83-1.02,13.72-.01.23-.01.45-.01.66h0c-.01.2-.01.38-.01.56-.18.09-.36.18-.55.29-3.92,2.05-9.3,5.8-14.08,9.35-.01,0-.02,0-.02.02h-.01c-2.13,1.58-4.14,3.12-5.85,4.45-2.1,1.63-3.75,2.95-4.61,3.65-.43.35-.67.54-.67.54l-.35-.25-3.11-2.2-4.31-3.05h-.02s-2.2-1.57-2.2-1.57l-.13-.1c2.16-3.17,4.59-6.14,7.26-8.87,8.04-8.21,18.24-14.29,29.7-17.29Z"/>
        <path class="cls-17" d="M251.35,94.67s0,8.32,2.7,27.04c-1.46,1.25-8.11,3.74-24.33,2.7-2.08-2.08-13.52-15.81-16.02-21.63.21-1.66,0-4.58.83-6.86,2.08-3.54,6.86-11.44,9.98-14.14,2.08,1.25,22.67,11.86,26.83,12.9Z"/>
        <polygon class="cls-22" points="376.68 497.25 367.92 501.68 373.12 511.8 382.78 506.91 377.58 496.79 376.68 497.25"/>
        <polygon class="cls-22" points="464.75 415.86 459.36 424.02 468.93 430.25 474.88 421.25 465.31 415.02 464.75 415.86"/>
        <polygon class="cls-22" points="495.4 341.03 493.18 350.53 504.32 353.1 506.78 342.62 495.63 340.05 495.4 341.03"/>
        <polygon class="cls-22" points="510.55 275.66 500.13 276.01 500.49 286.77 511.93 286.39 511.56 275.63 510.55 275.66"/>
        <path class="cls-22" d="M98.05,365.23l-8.53,4.54s3.75,6.94,4.52,8.36c-1.72.92-45.42,24.17-45.42,24.17l5.34,9.88s43.7-23.25,45.42-24.17c.77,1.42,4.59,8.49,4.59,8.49l9.43-5.02-14.44-26.73-.9.48Z"/>
        <path class="cls-22" d="M121.72,403.74l-53.57,31.36,7.14,8.49s9.96-5.97,11.26-6.74c.82.98,4.04,4.8,4.87,5.79-1.02,1.13-8.78,9.69-8.78,9.69l7.43,8.84,41.26-47.32-8.86-10.53-.74.44ZM111.32,421.37c-4.38,4.65-11.6,12.34-12.7,13.51-.83-.99-2.21-2.63-3.05-3.63,1.37-.86,10.32-6.48,15.74-9.88Z"/>
        <path class="cls-22" d="M254.79,476.98c-2.78,2.83-4.21,6.77-4.25,11.73,0,0-.25,30.85-.25,30.95,0,5.51,1.26,9.78,3.73,12.72,2.57,3.04,6.39,4.6,11.36,4.64,4.86.04,8.69-1.47,11.39-4.49,2.66-2.98,4.03-7.25,4.08-12.69l.06-7.25-11.59-.09-.07,9.15c-.02,1.83-.36,3.19-1.03,4.05-.61.78-1.52,1.16-2.77,1.15-1.26-.01-2.16-.4-2.76-1.19-.65-.87-.98-2.24-.96-4.07l.27-33.37c.02-1.82.36-3.18,1.03-4.02.61-.77,1.52-1.14,2.78-1.13,1.26,0,2.16.4,2.76,1.18.65.85.98,2.21.96,4.03l-.06,7.57,11.59.09.06-6.74c.04-4.97-1.28-8.98-3.93-11.91-2.68-2.97-6.35-4.49-10.92-4.53-4.81-.04-8.67,1.38-11.46,4.22Z"/>
        <path class="cls-22" d="M400.43,415.09h0c-2.92,3.11-4.28,6.84-4.04,11.09.24,4.23,2.03,7.92,5.32,10.95,2.27,2.09,4.94,3.56,7.93,4.38,2.98.81,7.84,1.1,14.87.88,0,0,1.26-.06,1.26-.06,6.78-.32,11.27.48,13.34,2.4,1.09,1,1.64,2.08,1.69,3.3.06,1.22-.39,2.31-1.35,3.33-1.09,1.16-2.3,1.62-3.7,1.41-1.55-.23-3.44-1.27-5.63-3.08l-.86-.71-6.26,9.06.69.59c4.12,3.49,8.35,5.27,12.56,5.29,4.26.02,8.11-1.77,11.43-5.31,3.01-3.21,4.43-6.94,4.21-11.08-.22-4.12-2.05-7.8-5.44-10.93-2.49-2.3-5.27-3.9-8.25-4.75-2.98-.84-7.41-1.1-13.54-.78.02,0-.72.02-.72.02-7.72.35-12.8-.57-15.14-2.73-1.06-.98-1.62-1.98-1.73-3.07-.1-1.04.24-1.97,1.05-2.83.88-.94,1.77-1.29,2.83-1.13,1.2.19,2.78,1.08,4.71,2.66l.85.69,6.4-9.13-.75-.59c-3.76-2.96-7.64-4.47-11.51-4.47-3.94,0-7.38,1.54-10.22,4.58Z"/>
        <path class="cls-22" d="M437.23,358.82l-5.13,11.81,53.11,33.74,4.41-10.15s-9.86-6.12-11.15-6.92c.51-1.17,2.5-5.75,3.01-6.93,1.48.4,12.68,3.4,12.68,3.4l4.59-10.57-61.19-15.16-.34.79ZM453.37,372.35c6.16,1.77,16.33,4.7,17.88,5.14-.52,1.18-1.37,3.15-1.88,4.34-1.39-.83-10.49-6.22-15.99-9.48Z"/>
        <path class="cls-22" d="M454.08,293.79c-3.04,2.44-4.75,6.37-5.07,11.68l-.84,14.15,62.13,3.65.87-14.56c.32-5.29-.91-9.32-3.63-11.97-2.69-2.62-7.12-4.13-13.18-4.48l-26.92-1.58c-5.84-.34-10.34.71-13.35,3.13ZM459.73,307.96c.14-2.25.72-3.87,1.74-4.8,1.01-.92,2.62-1.32,4.8-1.19l29,1.7c1.93.11,3.31.52,4.11,1.21.66.57.99,1.4.99,2.51,0,.12,0,.25-.01.37,0,0-.14,2.43-.22,3.67-1.89-.11-38.59-2.27-40.47-2.38.03-.55.06-1.1.06-1.1Z"/>
        <path class="cls-22" d="M85.63,325.37l-58.94,16.42,8.28,29.27,10.59-2.95s-4.73-16.74-5.23-18.48c1.64-.46,13.81-3.85,15.45-4.3.48,1.69,4.1,14.49,4.1,14.49l10.3-2.87s-3.62-12.8-4.1-14.49c1.6-.44,11.69-3.26,13.29-3.7.49,1.74,5.23,18.48,5.23,18.48l10.3-2.87-8.28-29.27-.98.27Z"/>
        <path class="cls-22" d="M144.41,428.85l-37.13,48.3,8.98,6.8s15.26-19.84,16.4-21.33c1.41,1.07,12.06,9.13,12.06,9.13l6.49-8.44s-10.65-8.06-12.06-9.13c1-1.31,7.37-9.58,8.37-10.89,1.45,1.1,15.38,11.64,15.38,11.64l6.49-8.44-24.36-18.44-.62.8Z"/>
        <path class="cls-22" d="M69.2,283.31l-30.83.9c-5.65.16-10.01,1.46-12.96,3.84-3.07,2.47-4.54,5.95-4.38,10.34l.02.57c.13,3.85.26,7.83,4.39,11.54,2.67,2.4,6.63,3.47,12.83,3.47l16.92-.49-.49-16.47-9.65.28s.12,4.21.16,5.57c-1.62.05-8.47.25-8.47.25-1.86.05-3.26-.24-4.16-.87-.82-.58-1.23-1.46-1.27-2.7-.04-1.25.33-2.15,1.11-2.78.86-.68,2.24-1.06,4.1-1.11l33.59-.98c1.83-.05,3.2.24,4.06.87.8.58,1.2,1.46,1.24,2.72.04,1.25-.32,2.16-1.08,2.78-.83.68-2.18,1.05-4,1.1l-7.35.21.32,10.91,6.52-.19c5.29-.15,9.35-1.5,12.06-3.99,2.75-2.53,4.07-6.15,3.93-10.78-.14-4.77-1.71-8.54-4.68-11.2-2.95-2.65-6.97-3.91-11.95-3.77Z"/>
        <path class="cls-22" d="M179.53,453.33l-25.62,55.17,27.83,12.72,4.6-9.91s-15.91-7.28-17.57-8.03c.71-1.53,6-12.92,6.71-14.46,1.61.74,13.78,6.3,13.78,6.3l4.48-9.64s-12.17-5.56-13.78-6.3c.69-1.49,5.08-10.95,5.78-12.44,1.66.76,17.57,8.03,17.57,8.03l4.48-9.64-27.83-12.72-.43.92Z"/>
        <path class="cls-22" d="M344.16,457.68l-27.79,10.16,21.52,57.94,10.6-3.88s-8.7-23.42-9.35-25.18c1.66-.61,14.23-5.2,14.23-5.2l-3.7-9.96s-12.57,4.6-14.23,5.2c-.57-1.54-4.2-11.31-4.77-12.85,1.71-.63,18.15-6.64,18.15-6.64l-3.7-9.96-.95.35Z"/>
        <polygon class="cls-22" points="310.12 521.29 300.34 523.01 302.34 534.4 313.14 532.5 311.13 521.11 310.12 521.29"/>
        <path class="cls-7" d="M279.38,71.55s2.31-5.43,5.36-6.57,8.15-2.82,11.51-12.4c.88-1.88,2.03-3.16,2.16-10.58,1.68-1.25,4.64-2.67.71-2.46-11.06.59-20.47,4.57-20.47,4.57l.73,27.44Z"/>
      </g>
    </g>
  </g>
</svg>